<?xml version="1.0" encoding="UTF-8" standalone="no"?>
<svg
   viewBox="0 0 413.75882 80.248123"
   version="1.1"
   id="svg1"
   xmlns="http://www.w3.org/2000/svg"
   xmlns:svg="http://www.w3.org/2000/svg">
  <defs
     id="defs1">
    <linearGradient
       id="SVGID_00000163788138570002168950000011840960296600595131_"
       gradientUnits="userSpaceOnUse"
       x1="597.93701"
       y1="2105.4675"
       x2="812.40308"
       y2="1891.0013">
      <stop
         offset="2.600000e-07"
         style="stop-color:#FAAD4F"
         id="stop141" />
      <stop
         offset="0.3482"
         style="stop-color:#DD2A7B"
         id="stop142" />
      <stop
         offset="0.6246"
         style="stop-color:#9537B0"
         id="stop143" />
      <stop
         offset="1"
         style="stop-color:#515BD4"
         id="stop144" />
    </linearGradient>
    <linearGradient
       id="SVGID_00000149360078339097131410000005815831344161415580_"
       gradientUnits="userSpaceOnUse"
       x1="629.69208"
       y1="2073.7122"
       x2="780.64807"
       y2="1922.7563">
      <stop
         offset="2.600000e-07"
         style="stop-color:#FAAD4F"
         id="stop145" />
      <stop
         offset="0.3482"
         style="stop-color:#DD2A7B"
         id="stop146" />
      <stop
         offset="0.6246"
         style="stop-color:#9537B0"
         id="stop147" />
      <stop
         offset="1"
         style="stop-color:#515BD4"
         id="stop148" />
    </linearGradient>
    <linearGradient
       id="SVGID_00000122716813866044015980000013526088097396677277_"
       gradientUnits="userSpaceOnUse"
       x1="675.32031"
       y1="2028.0844"
       x2="735.02032"
       y2="1968.3843">
      <stop
         offset="2.600000e-07"
         style="stop-color:#FAAD4F"
         id="stop149" />
      <stop
         offset="0.3482"
         style="stop-color:#DD2A7B"
         id="stop150" />
      <stop
         offset="0.6246"
         style="stop-color:#9537B0"
         id="stop151" />
      <stop
         offset="1"
         style="stop-color:#515BD4"
         id="stop152" />
    </linearGradient>
    <linearGradient
       id="SVGID_00000163051008980150443270000006396790044148114854_"
       gradientUnits="userSpaceOnUse"
       x1="743.28021"
       y1="1959.4762"
       x2="759.36548"
       y2="1943.3909">
      <stop
         offset="2.600000e-07"
         style="stop-color:#FAAD4F"
         id="stop153" />
      <stop
         offset="0.3482"
         style="stop-color:#DD2A7B"
         id="stop154" />
      <stop
         offset="0.6246"
         style="stop-color:#9537B0"
         id="stop155" />
      <stop
         offset="1"
         style="stop-color:#515BD4"
         id="stop156" />
    </linearGradient>
  </defs>
  <g
     id="layer1"
     transform="translate(-69.850003,-82.020829)">
    <g
       id="g1">
      <g
         id="g158"
         transform="matrix(0.26458333,0,0,0.26458333,-76.59687,-406.53229)">
        <g
           id="g144">
          <linearGradient
             id="linearGradient4"
             gradientUnits="userSpaceOnUse"
             x1="597.93701"
             y1="2105.4675"
             x2="812.40308"
             y2="1891.0013">
            <stop
               offset="2.600000e-07"
               style="stop-color:#FAAD4F"
               id="stop1" />
            <stop
               offset="0.3482"
               style="stop-color:#DD2A7B"
               id="stop2" />
            <stop
               offset="0.6246"
               style="stop-color:#9537B0"
               id="stop3" />
            <stop
               offset="1"
               style="stop-color:#515BD4"
               id="stop4" />
          </linearGradient>
          <path
             style="fill:url(#SVGID_00000163788138570002168950000011840960296600595131_)"
             d="m 705.5,2149.8 h -0.7 c -83.4,0 -151.3,-67.9 -151.3,-151.3 v -0.7 c 0,-83.4 67.9,-151.3 151.3,-151.3 h 0.7 c 83.4,0 151.3,67.9 151.3,151.3 v 0.7 c 0,83.5 -67.9,151.3 -151.3,151.3 z m -0.7,-292.9 c -77.7,0 -141,63.2 -141,141 v 0.7 c 0,77.7 63.2,141 141,141 h 0.7 c 77.7,0 141,-63.2 141,-141 v -0.7 c 0,-77.7 -63.2,-141 -141,-141 z"
             id="path144" />
        </g>
        <g
           id="g157">
          <g
             id="g148">
            <linearGradient
               id="linearGradient8"
               gradientUnits="userSpaceOnUse"
               x1="629.69208"
               y1="2073.7122"
               x2="780.64807"
               y2="1922.7563">
              <stop
                 offset="2.600000e-07"
                 style="stop-color:#FAAD4F"
                 id="stop5" />
              <stop
                 offset="0.3482"
                 style="stop-color:#DD2A7B"
                 id="stop6" />
              <stop
                 offset="0.6246"
                 style="stop-color:#9537B0"
                 id="stop7" />
              <stop
                 offset="1"
                 style="stop-color:#515BD4"
                 id="stop8" />
            </linearGradient>
            <path
               style="fill:url(#SVGID_00000149360078339097131410000005815831344161415580_)"
               d="m 750.5,1911.4 h -90.6 c -25,0 -45.4,20.4 -45.4,45.4 v 82.9 c 0,25 20.4,45.4 45.4,45.4 h 90.6 c 25,0 45.4,-20.4 45.4,-45.4 v -82.9 c 0,-25.1 -20.4,-45.4 -45.4,-45.4 z m -120,45.4 c 0,-16.2 13.2,-29.4 29.4,-29.4 h 90.6 c 16.2,0 29.4,13.2 29.4,29.4 v 82.9 c 0,16.2 -13.2,29.4 -29.4,29.4 h -90.6 c -16.2,0 -29.4,-13.2 -29.4,-29.4 z"
               id="path148" />
          </g>
          <g
             id="g152">
            <linearGradient
               id="linearGradient12"
               gradientUnits="userSpaceOnUse"
               x1="675.32031"
               y1="2028.0844"
               x2="735.02032"
               y2="1968.3843">
              <stop
                 offset="2.600000e-07"
                 style="stop-color:#FAAD4F"
                 id="stop9" />
              <stop
                 offset="0.3482"
                 style="stop-color:#DD2A7B"
                 id="stop10" />
              <stop
                 offset="0.6246"
                 style="stop-color:#9537B0"
                 id="stop11" />
              <stop
                 offset="1"
                 style="stop-color:#515BD4"
                 id="stop12" />
            </linearGradient>
            <path
               style="fill:url(#SVGID_00000122716813866044015980000013526088097396677277_)"
               d="m 705.2,2040.5 c 23.3,0 42.2,-18.9 42.2,-42.2 0,-23.3 -18.9,-42.2 -42.2,-42.2 -23.3,0 -42.2,18.9 -42.2,42.2 0,23.3 18.9,42.2 42.2,42.2 z m 0,-68.5 c 14.5,0 26.2,11.8 26.2,26.2 0,14.5 -11.8,26.2 -26.2,26.2 -14.5,0 -26.2,-11.8 -26.2,-26.2 0,-14.4 11.7,-26.2 26.2,-26.2 z"
               id="path152" />
          </g>
          <g
             id="g156">
            <linearGradient
               id="linearGradient16"
               gradientUnits="userSpaceOnUse"
               x1="743.28021"
               y1="1959.4762"
               x2="759.36548"
               y2="1943.3909">
              <stop
                 offset="2.600000e-07"
                 style="stop-color:#FAAD4F"
                 id="stop13" />
              <stop
                 offset="0.3482"
                 style="stop-color:#DD2A7B"
                 id="stop14" />
              <stop
                 offset="0.6246"
                 style="stop-color:#9537B0"
                 id="stop15" />
              <stop
                 offset="1"
                 style="stop-color:#515BD4"
                 id="stop16" />
            </linearGradient>
            <path
               style="fill:url(#SVGID_00000163051008980150443270000006396790044148114854_)"
               d="m 751.3,1962.8 c 6.3,0 11.4,-5.1 11.4,-11.4 0,-6.3 -5.1,-11.4 -11.4,-11.4 -6.3,0 -11.4,5.1 -11.4,11.4 0,6.3 5.1,11.4 11.4,11.4 z"
               id="path156" />
          </g>
        </g>
      </g>
      <path
         d="m 175.4584,139.35439 q -7.47176,0 -10.85603,-4.30508 -3.38426,-4.30508 -3.38426,-12.0089 0,-4.8149 1.69213,-8.46855 1.69213,-3.65365 4.87862,-5.72122 3.20847,-2.06757 7.7135,-2.06757 5.86753,0 8.92216,3.3421 3.05464,3.31378 3.05464,9.62978 0,5.89116 -1.27461,9.43152 -1.27459,3.51204 -3.77982,3.51204 -1.20868,0 -1.88992,-0.93465 -0.68125,-0.96298 -0.68125,-2.94559 -0.72521,1.13292 -2.24153,2.29416 -1.49435,1.13291 -4.06552,1.13291 -2.48326,0 -3.97761,-1.16123 -1.49436,-1.16124 -2.15362,-3.05888 -0.65928,-1.89763 -0.65928,-4.05017 0,-3.90856 1.34052,-6.25936 1.3625,-2.3508 3.38427,-3.37042 2.02177,-1.04795 4.04354,-1.04795 2.13165,0 3.29637,0.70808 1.18669,0.67974 1.67016,1.30285 0.10987,-0.70807 0.26371,-1.07627 0.15383,-0.3682 0.50544,-0.3682 0.37359,0 0.59334,0.39652 0.24173,0.3682 0.24173,1.38782 0,0.22659 -0.0219,1.07627 -0.022,0.84969 -0.15383,3.11552 -0.10988,2.26583 -0.37359,6.76917 -0.0219,0.3682 -0.0659,0.87801 -0.0219,0.50981 -0.0219,1.07627 0,0.90633 0.19779,1.67105 0.19777,0.76472 0.87903,0.76472 1.49435,0 2.37338,-2.97391 0.90101,-2.9739 0.90101,-8.32693 0,-5.52296 -2.61512,-8.38357 -2.59314,-2.86061 -7.69152,-2.86061 -3.95564,0 -6.76854,1.84099 -2.8129,1.84098 -4.32922,5.12644 -1.49435,3.25713 -1.49435,7.61886 0,4.55998 1.23064,7.84544 1.23064,3.28545 3.97761,5.04147 2.76895,1.75602 7.38386,1.75602 2.28548,0 3.99959,-0.59478 1.73609,-0.56646 2.9008,-1.24621 0.19778,-0.11329 0.37359,-0.11329 0.52742,0 0.52742,0.67975 0,0.65143 -0.50544,0.93466 -1.23065,0.70807 -3.01069,1.3595 -1.78003,0.65142 -4.32922,0.65142 z m -1.80201,-8.97836 q 2.19758,0 3.71391,-1.07627 1.51632,-1.10459 2.10967,-1.86931 l 0.41754,-0.53813 0.48347,-10.33786 q -0.85706,-0.48148 -2.0877,-0.93465 -1.20867,-0.45317 -2.6371,-0.45317 -1.73608,0 -3.38426,0.90634 -1.64818,0.90633 -2.725,2.80396 -1.05484,1.89764 -1.05484,4.84322 0,3.3421 1.23065,5.01315 1.25262,1.64272 3.93366,1.64272 z m 26.84105,5.89116 q -2.24153,0 -4.08749,-0.65142 -1.82399,-0.67975 -2.92278,-2.12422 -1.07681,-1.47279 -1.07681,-3.85191 0,-2.77564 1.16472,-4.3334 1.16471,-1.55776 3.14253,-2.18086 1.97782,-0.65143 4.43911,-0.65143 2.8129,0 5.42801,0.39652 2.63709,0.39652 4.04354,1.18956 0,-3.76694 -1.03286,-5.60793 -1.01088,-1.86931 -2.87883,-2.46409 -1.84596,-0.62311 -4.3512,-0.62311 -3.42822,0 -5.14233,0.50982 -1.7141,0.50981 -2.76894,0.96297 -0.13186,0.0566 -0.17581,0.0566 -0.26371,0 -0.48347,-0.33987 -0.21975,-0.3682 -0.21975,-0.7364 0,-0.36819 0.26371,-0.53813 0.37359,-0.22658 2.52721,-0.87801 2.15362,-0.67975 6.63668,-0.67975 2.70302,0 4.83467,0.84969 2.13165,0.82136 3.34032,3.25713 1.23064,2.40744 1.23064,7.16569 v 9.00668 q 0,0.65142 -0.15383,1.33117 -0.13186,0.65143 -0.74718,0.65143 -0.50544,0 -0.70322,-0.59478 -0.17581,-0.59478 -0.17581,-1.50111 v -1.58609 q -0.63729,0.84969 -1.86793,1.78435 -1.20867,0.90633 -3.20847,1.55775 -1.9998,0.62311 -5.05443,0.62311 z m -0.1758,-1.67105 q 4.32922,0 6.76854,-1.2462 2.43931,-1.24621 3.53809,-2.40745 v -5.6929 q -2.13164,-0.39652 -4.54899,-0.73639 -2.39535,-0.3682 -4.74676,-0.3682 -3.38426,0 -5.27419,1.13291 -1.88991,1.13292 -1.88991,4.36173 0,2.69067 1.73608,3.82359 1.73609,1.13291 4.41714,1.13291 z m 20.27029,1.38783 q -0.6373,0 -0.76915,-0.56646 -0.13185,-0.59478 -0.13185,-1.3595 v -27.58649 q 0,-0.82137 0.13185,-1.41615 0.15383,-0.6231 0.81311,-0.6231 0.54939,0 0.68125,0.6231 0.13184,0.62311 0.13184,1.3595 v 27.58649 q 0,0.82137 -0.15382,1.41615 -0.15383,0.56646 -0.70323,0.56646 z m 9.28241,0 q -0.28569,0 -0.59334,-0.28323 -0.28569,-0.31155 -0.28569,-0.96298 v -29.05928 q 0,-0.56646 0.30766,-0.84969 0.32964,-0.28323 0.61532,-0.28323 0.30766,0 0.57137,0.28323 0.26371,0.28323 0.26371,0.84969 v 18.6931 l 13.75683,-10.30953 q 0.13186,-0.085 0.28569,-0.085 0.28568,0 0.46149,0.28323 0.19778,0.28322 0.19778,0.59478 0,0.36819 -0.37359,0.67975 l -9.64736,7.39227 9.91107,11.3858 q 0.28569,0.33987 0.28569,0.82136 0,0.84969 -0.70323,0.84969 -0.37358,0 -0.74717,-0.45317 l -10.08688,-11.72568 -3.34032,2.40745 v 8.52519 q 0,0.65143 -0.28569,0.96298 -0.28568,0.28323 -0.59334,0.28323 z m 21.52291,0 q -0.61532,0 -0.74717,-0.48149 -0.13186,-0.48149 -0.13186,-1.30286 v -18.18329 q 0,-0.82136 0.13186,-1.38782 0.13185,-0.59478 0.74717,-0.59478 0.5494,0 0.70323,0.59478 0.1758,0.59478 0.1758,1.33117 v 18.23994 q 0,0.7364 -0.13185,1.27453 -0.10988,0.50982 -0.74718,0.50982 z m -0.0219,-26.62352 q -0.57136,0 -0.92297,-0.42484 -0.35162,-0.45317 -0.35162,-1.16124 0,-0.7364 0.35162,-1.18956 0.35161,-0.48149 0.92297,-0.48149 0.5494,0 0.92298,0.48149 0.39557,0.45316 0.39557,1.18956 0,0.70807 -0.39557,1.16124 -0.37358,0.42484 -0.92298,0.42484 z m 8.46931,26.62352 q -0.30766,0 -0.65927,-0.19826 -0.32964,-0.19826 -0.32964,-1.27453 v -18.83472 q 0,-0.90634 0.30766,-1.13292 0.30765,-0.25491 0.59334,-0.25491 0.37359,0 0.59335,0.25491 0.24174,0.22658 0.24174,1.13292 v 3.48371 q 0.70322,-2.57738 2.90079,-3.99353 2.21956,-1.44446 5.07641,-1.44446 2.24152,0 3.34032,0.96297 1.12076,0.96298 1.5383,2.20919 0.41754,1.24621 0.54939,2.12422 0.52742,-1.18957 1.53831,-2.40745 1.03286,-1.21788 2.63709,-2.03925 1.60423,-0.84968 3.84576,-0.84968 3.01068,0 4.46108,2.01092 1.47238,2.01093 1.47238,6.40097 v 12.37711 q 0,0.9913 -0.30767,1.2462 -0.28568,0.22659 -0.54939,0.22659 -0.32964,0 -0.61532,-0.19826 -0.28568,-0.19826 -0.28568,-1.27453 v -12.37711 q 0,-3.93688 -1.03286,-5.3247 -1.01089,-1.41614 -3.09859,-1.41614 -2.8129,0 -4.68084,1.47279 -1.84596,1.47279 -3.07661,4.05017 v 13.59499 q 0,0.9913 -0.28568,1.2462 -0.28568,0.22659 -0.54939,0.22659 -0.30767,0 -0.61533,-0.19826 -0.30766,-0.19826 -0.30766,-1.27453 v -13.59499 q 0,-2.57738 -0.94496,-4.05017 -0.92298,-1.47279 -2.9887,-1.47279 -3.09859,0 -5.29616,1.67105 -2.17561,1.67105 -2.70302,3.9652 v 13.4817 q 0,0.9913 -0.26371,1.2462 -0.24174,0.22659 -0.50544,0.22659 z m 35.30171,0 q -0.61532,0 -0.74717,-0.48149 -0.13186,-0.48149 -0.13186,-1.30286 v -18.18329 q 0,-0.82136 0.13186,-1.38782 0.13185,-0.59478 0.74717,-0.59478 0.5494,0 0.70323,0.59478 0.17581,0.59478 0.17581,1.33117 v 18.23994 q 0,0.7364 -0.13185,1.27453 -0.10989,0.50982 -0.74719,0.50982 z m -0.0219,-26.62352 q -0.57137,0 -0.92298,-0.42484 -0.35162,-0.45317 -0.35162,-1.16124 0,-0.7364 0.35162,-1.18956 0.35161,-0.48149 0.92298,-0.48149 0.54939,0 0.92298,0.48149 0.39556,0.45316 0.39556,1.18956 0,0.70807 -0.39556,1.16124 -0.37359,0.42484 -0.92298,0.42484 z m 15.01808,26.90674 q -2.24153,0 -4.08749,-0.65142 -1.82399,-0.67975 -2.92278,-2.12422 -1.07681,-1.47279 -1.07681,-3.85191 0,-2.77564 1.16472,-4.3334 1.16471,-1.55776 3.14253,-2.18086 1.97782,-0.65143 4.43911,-0.65143 2.81289,0 5.42801,0.39652 2.63709,0.39652 4.04354,1.18956 0,-3.76694 -1.03286,-5.60793 -1.01089,-1.86931 -2.87883,-2.46409 -1.84596,-0.62311 -4.3512,-0.62311 -3.42822,0 -5.14233,0.50982 -1.71411,0.50981 -2.76895,0.96297 -0.13185,0.0566 -0.1758,0.0566 -0.26371,0 -0.48347,-0.33987 -0.21975,-0.3682 -0.21975,-0.7364 0,-0.36819 0.26371,-0.53813 0.37358,-0.22658 2.52721,-0.87801 2.15362,-0.67975 6.63667,-0.67975 2.70302,0 4.83468,0.84969 2.13165,0.82136 3.34032,3.25713 1.23064,2.40744 1.23064,7.16569 v 9.00668 q 0,0.65142 -0.15384,1.33117 -0.13185,0.65143 -0.74717,0.65143 -0.50544,0 -0.70322,-0.59478 -0.17581,-0.59478 -0.17581,-1.50111 v -1.58609 q -0.6373,0.84969 -1.86794,1.78435 -1.20867,0.90633 -3.20846,1.55775 -1.9998,0.62311 -5.05443,0.62311 z m -0.17581,-1.67105 q 4.32923,0 6.76854,-1.2462 2.43931,-1.24621 3.5381,-2.40745 v -5.6929 q -2.13165,-0.39652 -4.54899,-0.73639 -2.39535,-0.3682 -4.74676,-0.3682 -3.38427,0 -5.27419,1.13291 -1.88991,1.13292 -1.88991,4.36173 0,2.69067 1.73609,3.82359 1.73608,1.13291 4.41712,1.13291 z m 29.65395,1.67105 q -3.31834,0 -5.84556,-0.96297 -2.50523,-0.96298 -3.91168,-3.37043 -1.40645,-2.43577 -1.40645,-6.85414 0,-4.39004 1.29657,-6.85414 1.31854,-2.46409 3.82379,-3.48371 2.50523,-1.01962 6.04333,-1.01962 1.93387,0 3.99959,0.50981 2.0877,0.48149 3.99959,1.75602 0.46149,0.31155 0.46149,0.87801 0,0.73639 -0.61532,0.73639 -0.19778,0 -0.46149,-0.14161 -0.70322,-0.45317 -1.91189,-0.93466 -1.20867,-0.48149 -2.65907,-0.79304 -1.42843,-0.33987 -2.8129,-0.33987 -5.03245,0 -7.23003,2.26583 -2.1756,2.23751 -2.1756,7.42059 0,5.21142 2.32943,7.36396 2.35141,2.15253 7.05423,2.15253 1.40644,0 2.83487,-0.31155 1.4504,-0.33987 2.65907,-0.82136 1.20867,-0.48149 1.91189,-0.93466 0.26371,-0.14161 0.46149,-0.14161 0.61532,0 0.61532,0.73639 0,0.56646 -0.46149,0.87801 -1.91189,1.27453 -3.99959,1.78435 -2.06572,0.48148 -3.99959,0.48148 z m 16.02898,-0.28322 q -0.61532,0 -0.76916,-0.65143 -0.15382,-0.65143 -0.15382,-1.38782 v -27.52985 q 0,-0.67975 0.15382,-1.33117 0.15384,-0.65143 0.76916,-0.65143 0.52742,0 0.68125,0.6231 0.15383,0.62311 0.15383,1.3595 v 12.7453 q 0.37359,-1.69937 1.42843,-2.77564 1.07681,-1.07627 2.48326,-1.64273 1.40645,-0.59478 2.85684,-0.79304 1.45041,-0.22658 2.57117,-0.22658 3.16451,0 5.01047,0.9913 1.86795,0.96298 2.68105,3.22881 0.8131,2.26583 0.8131,6.20271 v 9.79972 q 0,0.73639 -0.15383,1.38782 -0.15382,0.65143 -0.68124,0.65143 -0.6373,0 -0.79113,-0.65143 -0.13186,-0.65143 -0.13186,-1.38782 V 124.145 q 0,-2.94558 -0.52742,-4.87154 -0.50544,-1.95428 -1.95584,-2.91726 -1.4504,-0.96297 -4.2633,-0.96297 -1.69213,0 -3.66995,0.50981 -1.97782,0.50981 -3.56007,1.75602 -1.58226,1.2462 -2.10968,3.48371 v 12.80195 q 0,0.73639 -0.15383,1.38782 -0.15383,0.65143 -0.68125,0.65143 z m 33.47773,0.28322 q -2.24153,0 -4.08749,-0.65142 -1.82399,-0.67975 -2.92278,-2.12422 -1.07681,-1.47279 -1.07681,-3.85191 0,-2.77564 1.16471,-4.3334 1.16472,-1.55776 3.14254,-2.18086 1.97781,-0.65143 4.4391,-0.65143 2.8129,0 5.42802,0.39652 2.63709,0.39652 4.04354,1.18956 0,-3.76694 -1.03286,-5.60793 -1.01089,-1.86931 -2.87883,-2.46409 -1.84596,-0.62311 -4.3512,-0.62311 -3.42822,0 -5.14233,0.50982 -1.71411,0.50981 -2.76895,0.96297 -0.13185,0.0566 -0.1758,0.0566 -0.26371,0 -0.48347,-0.33987 -0.21976,-0.3682 -0.21976,-0.7364 0,-0.36819 0.26371,-0.53813 0.37359,-0.22658 2.52721,-0.87801 2.15363,-0.67975 6.63669,-0.67975 2.70302,0 4.83467,0.84969 2.13165,0.82136 3.34031,3.25713 1.23065,2.40744 1.23065,7.16569 v 9.00668 q 0,0.65142 -0.15383,1.33117 -0.13186,0.65143 -0.74718,0.65143 -0.50544,0 -0.70323,-0.59478 -0.1758,-0.59478 -0.1758,-1.50111 v -1.58609 q -0.63729,0.84969 -1.86794,1.78435 -1.20867,0.90633 -3.20846,1.55775 -1.99979,0.62311 -5.05443,0.62311 z m -0.1758,-1.67105 q 4.32922,0 6.76853,-1.2462 2.43931,-1.24621 3.5381,-2.40745 v -5.6929 q -2.13165,-0.39652 -4.54898,-0.73639 -2.39536,-0.3682 -4.74677,-0.3682 -3.38427,0 -5.27418,1.13291 -1.88992,1.13292 -1.88992,4.36173 0,2.69067 1.73608,3.82359 1.73609,1.13291 4.41714,1.13291 z m 20.22635,1.38783 q -0.61532,0 -0.76915,-0.62311 -0.13186,-0.6231 -0.13186,-1.3595 v -18.12664 q 0,-0.65143 0.17581,-1.1046 0.19778,-0.48149 0.81311,-0.48149 0.48346,0 0.61532,0.45317 0.15383,0.45317 0.15383,1.13292 v 3.28545 q 0.48346,-2.32248 1.78003,-3.48371 1.31854,-1.16124 2.85685,-1.55776 1.53831,-0.39652 2.68105,-0.39652 1.69213,0 2.48326,0.22658 0.79112,0.22658 1.40644,0.45317 0.4615,0.16993 0.4615,0.84968 0,0.3682 -0.19779,0.67975 -0.1758,0.31155 -0.54938,0.31155 -0.0879,0 -0.13186,0 -0.0219,-0.0283 -0.13185,-0.0567 -0.85706,-0.31155 -1.64819,-0.48149 -0.79112,-0.16993 -1.69213,-0.16993 -2.59314,0 -4.61491,1.33117 -1.9998,1.30286 -2.70302,4.10682 v 13.02853 q 0,0.73639 -0.15383,1.3595 -0.15384,0.6231 -0.70323,0.6231 z m 18.42432,0 q -0.30767,0 -0.65928,-0.19826 -0.32963,-0.19826 -0.32963,-1.27453 v -18.83472 q 0,-0.90634 0.30766,-1.13292 0.30766,-0.25491 0.59335,-0.25491 0.37359,0 0.59334,0.25491 0.24173,0.22658 0.24173,1.13292 v 3.48371 q 0.70323,-2.57738 2.90081,-3.99353 2.21955,-1.44446 5.0764,-1.44446 2.24153,0 3.34031,0.96297 1.12077,0.96298 1.53831,2.20919 0.41754,1.24621 0.54939,2.12422 0.52742,-1.18957 1.53831,-2.40745 1.03286,-1.21788 2.63709,-2.03925 1.60423,-0.84968 3.84576,-0.84968 3.01068,0 4.46108,2.01092 1.47238,2.01093 1.47238,6.40097 v 12.37711 q 0,0.9913 -0.30766,1.2462 -0.28569,0.22659 -0.5494,0.22659 -0.32963,0 -0.61532,-0.19826 -0.28568,-0.19826 -0.28568,-1.27453 v -12.37711 q 0,-3.93688 -1.03287,-5.3247 -1.01088,-1.41614 -3.09858,-1.41614 -2.8129,0 -4.68083,1.47279 -1.84597,1.47279 -3.07661,4.05017 v 13.59499 q 0,0.9913 -0.28569,1.2462 -0.28569,0.22659 -0.54939,0.22659 -0.30766,0 -0.61532,-0.19826 -0.30767,-0.19826 -0.30767,-1.27453 v -13.59499 q 0,-2.57738 -0.94495,-4.05017 -0.92299,-1.47279 -2.98871,-1.47279 -3.09858,0 -5.29616,1.67105 -2.1756,1.67105 -2.70302,3.9652 v 13.4817 q 0,0.9913 -0.26371,1.2462 -0.24173,0.22659 -0.50544,0.22659 z m 45.43257,0.28322 q -1.56028,0 -3.4502,-0.16993 -1.88992,-0.14162 -3.66996,-0.70807 -1.75806,-0.59479 -3.03265,-1.86932 -0.30766,-0.31155 -0.30766,-0.73639 0,-0.90633 0.57137,-0.90633 0.1758,0 0.26371,0.11329 1.84596,1.64272 4.24132,2.12421 2.39536,0.48149 5.1643,0.48149 2.19758,0 4.13145,-0.39652 1.93387,-0.39652 3.12056,-1.38782 1.20867,-0.9913 1.20867,-2.74732 0,-1.7277 -1.05484,-2.57738 -1.03286,-0.84969 -2.74697,-1.16124 -1.69214,-0.31155 -3.73588,-0.3682 -2.04375,-0.0567 -4.10947,-0.16994 -2.04375,-0.11329 -3.75786,-0.59478 -1.69213,-0.50981 -2.74697,-1.67105 -1.03286,-1.16124 -1.03286,-3.31378 0,-2.6057 1.38447,-3.99352 1.40645,-1.41615 3.58205,-1.95428 2.1756,-0.53814 4.50504,-0.53814 2.81289,0 5.34011,0.62311 2.54919,0.6231 4.63689,2.03924 0.35161,0.25491 0.39556,0.79305 0,0.36819 -0.1758,0.65142 -0.17581,0.28323 -0.39557,0.28323 -0.13185,0 -0.17581,-0.0567 -1.86793,-1.21788 -4.2633,-1.92596 -2.39535,-0.73639 -5.27418,-0.73639 -1.97782,0 -3.77983,0.45317 -1.78004,0.42484 -2.90081,1.47279 -1.12076,1.04794 -1.12076,2.88893 0,1.64273 1.03286,2.43577 1.05484,0.76472 2.74698,1.04795 1.7141,0.28322 3.75785,0.33987 2.06572,0.0567 4.10947,0.19826 2.04375,0.14161 3.73588,0.67975 1.71411,0.53813 2.74697,1.75602 1.05484,1.18956 1.05484,3.39874 0,2.32248 -1.42843,3.68198 -1.40645,1.33118 -3.69192,1.92596 -2.28548,0.59478 -4.87862,0.59478 z"
         id="text1"
         style="fill:#af8f5c;stroke:#af8f5c;stroke-width:1.15004"
         aria-label="@alkimiacharms" />
    </g>
  </g>
</svg>
