<?xml version="1.0" encoding="UTF-8" standalone="no"?>
<svg
   version="1.1"
   id="svg1"
   viewBox="0 0 180 180"
   xmlns="http://www.w3.org/2000/svg"
   xmlns:svg="http://www.w3.org/2000/svg">
  <defs
     id="defs1" />
  <g
     id="g793"
     style="display:inline">
    <g
       id="g792"
       style="display:inline;fill:#006b60;fill-opacity:1"
       transform="matrix(-1,0,0,1,6908.0209,-9e-5)">
      <g
         id="g791"
         transform="matrix(0.04663406,0,0,0.04663406,6656.3226,18.929778)"
         style="fill:#006b60;fill-opacity:1">
        <g
           id="g511"
           transform="translate(-124,-73.55913)"
           style="fill:#006b60;fill-opacity:1">
          <path
             id="path491"
             style="display:inline;fill:#006b60;fill-opacity:1;stroke:none;stroke-width:2.23061"
             d="m 2806.0561,1441.2898 c 22.4446,-0.5746 44.8914,1.0315 67.4947,4.8693 24.7174,4.1958 54.5768,0.039 63.334,35.0755 -4.5415,0.7205 -9.4692,1.4976 -18.2935,2.8917 29.966,5.251 45.0692,29.625 72.5304,36.9794 -19.8837,-22.3998 -42.0229,-40.4419 -50.5237,-69.7634 22.0742,-2.777 35.2246,9.9569 49.2128,20.9359 32.2726,25.3308 56.8547,60.2697 96.3187,76.6312 26.8877,11.151 48.404,29.5051 67.7209,50.9436 16.6607,18.485 34.9385,35.1967 58.5407,44.6366 5.5899,2.2329 11.1354,7.942 24.8269,-3.1732 -63.965,-19.9283 -102.0824,-65.709 -144.7561,-114.5014 45.1072,0.4104 82.9881,4.4202 119.0638,18.5913 31.639,12.4288 33.1255,15.5971 29.2554,47.5996 -0.4104,3.3816 -0.055,6.8549 -0.055,10.2857 11.0302,-35.4914 31.4008,-65.2647 53.6691,-94.2047 -20.5128,10.6112 -30.7747,30.9689 -45.6059,48.022 -10.6557,-15.4605 -27.1321,-20.8821 -40.1387,-32.6686 8.869,-7.8027 17.1859,-15.337 25.7269,-22.6021 186.5766,-87.2858 383.95,-130.0989 311.6226,223.2427 -14.2826,-22.4623 -21.0002,-41.7027 -29.5278,-60.2993 1.528,38.5539 39.0259,82.1453 44.2696,69.491 l -69.7125,141.2183 c 70.7456,18.5713 59.7995,283.9606 55.3537,291.056 -22.4512,-47.657 -61.8724,-81.9065 -96.2194,-120.2731 -61.3752,-68.5644 -103.1049,-146.3985 -113.4974,-243.8117 -7.9455,82.9745 25.0558,147.6433 69.784,207.1831 31.0502,41.333 66.2385,79.5311 98.6494,119.876 17.3229,21.5635 33.3769,44.3051 41.3111,77.0951 4.1914,-10.1281 9.0959,-19.7891 14.3311,-29.2323 v 404.9966 c -1.2553,0.8998 -2.7826,1.6944 -5.1578,2.1392 -9.6989,-32.5833 16.0791,-102.1929 -10.2694,-50.2581 -7.3409,-5.5876 0.024,-15.7357 -6.9117,-21.5822 -4.9454,20.5105 2.2598,42.049 -7.5994,64.0563 -24.0238,-36.0222 -32.8199,-75.035 -39.1303,-114.7553 -6.5224,-41.0723 -11.0129,-82.6489 -37.914,-117.0606 23.504,49.1717 23.6017,103.1994 34.4892,154.8201 8.5099,40.3384 30.0544,82.3548 58.3586,112.2651 5.2231,-4.9462 9.823,-10.0954 14.1348,-15.3396 0.1724,86.7265 -0.7763,173.4071 0,260.1321 -2.8777,8.0725 -5.693,16.174 -8.3563,24.3583 -1.5392,4.7245 -2.8992,10.1821 1.0155,16.8651 2.0997,-8.1701 4.5815,-16.1075 7.3408,-23.876 -7.6507,98.9253 -45.3654,118.3749 -69.6433,73.3634 -9.7654,-22.7009 -12.8518,-44.9783 -22.6197,-67.6771 -3.2255,-25.7881 -17.6287,-47.0743 -33.3547,-76.7443 24.7531,21.3046 39.6582,44.6494 52.5982,68.9809 12.4668,23.4415 22.6286,48.1062 33.8062,72.2304 1.3472,-4.4881 0.5006,-8.0467 -0.6392,-11.5087 -20.4011,-61.9707 -59.1092,-112.3112 -101.3034,-160.6173 -26.5978,-30.4499 -53.1044,-61.0676 -67.407,-100.0387 -6.0987,-16.6203 -6.1893,-31.6727 3.5607,-46.9904 34.2464,-53.7935 47.0571,-112.7698 42.1028,-176.0791 -0.7071,-9.0207 -2.7277,-18.764 2.3492,-28.2954 35.8525,37.3271 49.3082,45.9696 71.0856,44.2766 -32.3504,-33.6399 -68.3251,-63.082 -80.2589,-110.2506 16.355,117.4775 -5.8611,224.4269 -82.2529,318.1259 10.6177,-1.8336 11.5951,-11.9339 20.3613,-12.4826 -10.988,58.5803 -51.3132,127.6006 -91.627,155.5724 10.6511,-33.7737 23.8309,-65.4111 30.0654,-99.2495 6.0828,-33.002 9.6085,-67.3563 36.6079,-96.787 v 32.6246 c 22.797,-67.3332 19.603,-135.7273 9.6279,-204.5683 -6.5024,33.5998 -6.9309,68.3571 -23.9013,99.501 -17.2226,31.6055 -40.0594,57.7915 -69.4634,78.3689 -32.2747,22.5872 -70.2413,36.5369 -93.2055,34.2817 166.6334,-115.7843 159.2943,-295.477 89.34,-374.2689 15.1971,49.4638 12.0718,93.8246 -22.4983,132.3496 19.0182,-42.9729 10.0534,-83.1963 -11.6056,-122.0224 -10.5842,-18.9734 -24.3441,-36.4252 -33.01,-56.1706 -25.4402,-57.9936 -16.8759,-72.6156 27.5914,-106.7104 -0.328,26.0937 -6.1618,52.287 7.7125,76.4511 -3.8388,-21.697 -5.9181,-43.0198 8.1348,-65.6139 22.4176,25.505 52.8107,42.477 49.4713,83.2036 -1.8803,22.9572 12.7138,40.9216 30.4761,55.0145 23.3567,18.532 36.1788,43.5872 44.1935,71.4318 2.7414,9.5247 3.5314,19.6078 5.6147,31.787 26.0981,-20.0265 36.9013,-45.5698 47.3852,-78.0251 10.0824,28.6054 25.1585,45.7464 48.4996,55.4853 -41.1771,-34.6346 -48.2724,-85.9738 -65.2563,-132.8434 -1.0707,47.8398 11.4409,96.7379 -24.6883,138.0889 -1.4232,-46.905 -27.5408,-80.1022 -55.9029,-112.5375 -12.4491,-14.238 -17.9803,-32.0072 -20.1952,-50.7843 57.6145,-9.8483 88.9159,-69.7933 69.6479,-135.5896 0.6336,30.787 -1.1725,58.3697 -18.2681,83.1851 -16.8767,-23.5731 -32.3807,-45.2261 -47.8813,-66.8787 3.0937,25.6364 17.9938,45.7258 28.0069,67.9426 9.2971,20.6264 3.4006,29.9308 -19.6436,32.3154 -24.3004,2.5161 -36.6923,-12.809 -48.4788,-30.0561 -21.7285,-31.7907 -25.0544,-69.5125 -34.1664,-105.635 -2.2329,6.801 -2.8252,13.4802 -4.0408,20.0405 -4.3207,23.2631 -11.5365,45.1893 -31.3601,60.3084 -18.3624,14.006 -32.8355,11.444 -45.4095,-7.514 -24.4409,-36.8497 -15.2919,-108.8775 16.3873,-139.7736 17.8337,-17.3965 37.4247,-34.5546 40.8263,-69.0063 -43.3941,48.8437 -89.3251,82.6396 -152.0946,86.3514 -3.7762,-24.7955 7.0215,-47.1586 11.4003,-71.9072 -38.7323,91.011 -110.5088,133.2262 -205.9968,145.4991 23.825,-97.8993 91.8295,-153.5412 172.6267,-198.3743 -74.4065,20.6688 -141.0449,63.7236 -222.8526,77.7296 22.7634,-45.1209 43.904,-84.3405 82.2483,-111.1413 38.4534,-26.8743 82.4854,-33.7564 127.7779,-36.7186 24.7821,-1.6196 50.0876,-1.1797 72.4495,-15.2012 -26.1071,5.175 -52.3574,4.5448 -78.3551,2.4324 -40.8626,-3.3213 -80.2621,-12.6538 -111.5174,-41.5603 -27.2426,-25.1948 -26.1722,-33.3412 3.5307,-51.9244 0.9167,-0.5734 0.9064,-2.6361 1.3593,-4.1124 -23.4191,-4.9076 -46.9347,-9.1498 -70.0818,-14.8781 -23.1091,-5.717 -45.8476,-12.9212 -73.5919,-20.862 96.3244,-38.0031 189.4791,-41.4197 286.1382,-22.2721 0,9.0049 -0.3594,17.1858 0.06,25.3252 1.9252,37.5122 36.6777,78.5786 73.5295,83.5798 27.2337,3.6939 54.9901,3.541 82.5137,5.1048 -19.7454,-7.2139 -40.086,-11.5968 -59.983,-17.4812 -37.2044,-10.999 -65.0958,-32.9656 -78.6066,-70.5849 -3.0202,-8.4139 -7.6703,-17.96 1.2276,-24.8014 7.8383,-6.0293 15.8548,-0.8876 22.2745,4.6108 7.1735,6.1454 15.2604,6.0049 23.3844,4.0687 18.0299,-4.294 35.9218,-9.1742 59.4593,-15.2659 -24.9272,-2.253 -44.1429,-3.7242 -63.2971,-5.7694 -55.0559,-5.8822 -110.255,-11.1509 -162.505,-31.5007 -17.2134,-6.7074 -33.9268,-14.1517 -42.6195,-33.1878 23.0489,-6.0026 41.8538,-17.2229 61.2178,-30.2385 -89.5122,23.5731 -155.1441,-25.0092 -224.6412,-69.1864 38.0822,-12.8287 75.4807,-19.8422 112.8883,-20.7997 z m 543.877,51.8413 c -24.6326,31.2864 -48.7497,62.2511 -67.0586,97.2025 -8.6192,16.4574 -13.2914,33.3128 -6.5795,51.6105 9.8303,26.7808 0.6505,54.7256 5.1786,81.8052 1.2603,7.5372 -1.9847,16.7813 13.0297,24.7045 -19.5782,-95.3631 6.8493,-177.8512 55.4298,-255.3227 z m 64.2132,110.7421 c -22.0183,35.5537 -48.7372,68.3874 -63.8139,107.9428 -5.6101,14.7153 -13.4368,29.6842 -5.7948,51.4927 12.5026,-38.2705 27.0694,-70.4335 51.2782,-99.1593 2.5406,10.3366 -5.8921,19.1233 2.3077,29.1053 z m 48.8136,5.4255 c -52.8141,146.4128 -62.1677,291.9454 13.0687,434.9812 -47.4541,-119.2352 -48.9231,-241.4005 -22.9229,-365.6033 4.2181,20.5819 12.3699,39.8697 17.0497,60.0523 4.7044,20.2963 9.0256,40.8381 9.3649,61.9285 6.7632,-27.6171 1.547,-55.6203 -5.9679,-80.9513 -10.8964,-36.7338 -17.8464,-72.3041 -10.5925,-110.4074 z m -35.2001,896.3238 c 1.6038,53.5035 39.0916,130.4415 102.6326,207.1299 -27.4232,-72.2561 -83.0009,-130.7469 -102.6326,-207.1299 z m -28.5008,84.3829 c 1.4367,37.084 9.8232,72.1517 28.6184,104.5804 16.5622,28.574 35.7436,55.3435 54.7283,82.2806 25.5629,36.2674 47.8628,74.1538 57.6639,118.2375 -1.7688,-32.8325 -12.2733,-63.3701 -28.6439,-91.1769 -21.2421,-36.078 -45.5414,-70.3432 -67.7717,-105.8589 -20.9141,-33.4124 -36.8659,-69.0648 -44.595,-108.0627 z" />
          <path
             id="path492"
             d="m 1981.2156,1288.8025 c 118.8984,23.2787 239.3067,38.8081 358.9747,58.2144 v 0 c 84.9103,13.7696 171.3845,18.8956 254.1044,44.862 v 0 c 38.6187,12.1236 77.5563,23.6758 112.8199,46.571 v 0 c -83.1571,-4.2406 -164.6301,-24.403 -247.986,-22.4737 v 0 c 41.1124,7.3277 82.0865,16.9973 123.5491,20.089 v 0 c 70.8954,5.2865 120.6136,47.7085 174.5544,90.9822 v 0 c -43.5684,-7.5618 -84.2213,-6.6494 -124.4437,-3.4999 v 0 c -107.0716,8.3849 -204.5895,-18.563 -295.226,-74.3306 v 0 c -13.3746,-8.2287 -27.3092,-15.554 -41.1301,-23.0311 v 0 c -1.2581,-0.6825 -3.5668,0.5734 -5.1171,0.8767 v 0 c -0.7094,6.6606 8.5209,6.703 6.9349,13.0156 v 0 c -99.4093,8.6995 -240.9237,-8.6837 -309.7649,-37.4743 v 0 c -96.6613,-40.4253 -178.1188,-101.3389 -244.7739,-181.8907 v 0 c -24.1576,-29.1943 -45.7744,-60.2935 -60.3806,-101.8008 v 0 c 97.5202,104.2099 160.2117,142.9355 297.8849,169.8901"
             style="display:inline;fill:#006b60;fill-opacity:1;stroke:none;stroke-width:2.23061" />
          <path
             id="path493"
             d="m 1678.7425,537.10419 c 11.1865,64.30854 46.2942,114.47288 91.4306,159.02928 v 0 c 85.613,84.51119 189.9387,141.60809 296.1538,193.67726 v 0 c 52.2675,25.62537 83.6613,68.17424 124.3386,109.68145 v 0 c -46.2139,-15.97116 -88.2629,-30.50131 -130.3122,-45.03381 v 0 c 6.8456,6.8123 14.8068,10.51505 23.0199,13.52637 v 0 c 41.4069,15.20164 85.4301,25.52718 123.7855,46.31866 v 0 c 72.437,39.2632 146.1029,75.7584 220.2129,111.5552 v 0 c 12.2235,5.9045 22.9705,14.2425 28.3352,27.51 v 0 c 0.6805,1.6819 -0.5219,4.1268 -0.7851,5.7952 v 0 c -2.795,1.49 -5.5609,0.6134 -8.309,-0.2653 v 0 c -3.4397,-1.0998 -6.8504,-2.2017 -10.2474,1.3493 v 0 c 14.9629,9.0875 31.2218,15.8106 43.9228,36.9481 v 0 c -86.3222,-37.528 -182.0713,-35.2215 -254.5462,-104.056 v 0 c 17.662,33.883 23.7272,39.464 68.9527,68.7408 v 0 c -2.67,-0.716 -5.514,-1.0617 -7.9901,-2.2038 v 0 c -64.536,-29.7966 -130.0536,-57.6747 -193.3316,-89.945 v 0 C 1954.5264,998.92349 1833.9283,904.78706 1741.5141,778.09055 v 0 c -55.3103,-75.82517 -87.4644,-160.24033 -78.5822,-256.44883 v 0 c 2.5451,-27.57271 9.0942,-53.8671 25.487,-77.09664 v 0 c -8.4897,30.4144 -15.2396,60.58336 -9.6764,92.55911"
             style="display:inline;fill:#006b60;fill-opacity:1;stroke:none;stroke-width:2.23061" />
          <path
             id="path494"
             d="m 2760.5445,1554.4661 c 45.8613,3.9638 85.8271,19.2167 118.4967,54.563 v 0 c -39.8476,5.233 -77.6543,6.1096 -114.9433,-11.4164 v 0 c -52.821,-24.8221 -109.0012,-31.186 -166.8299,-23.7514 v 0 c 63.0104,-1.6038 120.4577,20.0934 180.2982,41.5696 v 0 c -49.0043,18.5096 -94.8054,39.4396 -143.4617,50.8358 v 0 c -135.1394,31.6499 -272.1392,45.3528 -410.6445,30.8894 v 0 c -83.7461,-8.7461 -157.4542,-44.0791 -228.1714,-97.6851 v 0 c 17.5526,1.8423 29.4262,3.0916 41.2975,4.3317 v 0 c 84.094,8.7998 165.8637,-8.2888 247.241,-24.637 v 0 c 106.7035,-21.434 213.8087,-31.5007 321.4624,-31.4985 v 0 c 51.6186,0 103.3687,2.3132 155.255,6.7989 m -70.3245,56.3051 c -72.234,-11.5056 -138.0793,-9.9306 -209.76,-0.2921 v 0 c 20.8539,3.1296 40.2044,1.4164 59.6509,-0.2967 v 0 c 19.4511,-1.7109 39.0001,-3.4241 60.2512,-0.2922 v 0 c -79.0062,8.2174 -150.9925,20.149 -222.642,32.8724 v 0 c 102.519,-7.7023 203.8088,-24.3115 312.4999,-31.9914"
             style="display:inline;fill:#006b60;fill-opacity:1;stroke:none;stroke-width:2.23061" />
          <path
             id="path495"
             d="m 1973.6939,493.26599 c 28.6366,38.83055 62.8008,72.53514 98.408,104.87226 v 0 c 68.8879,62.55745 139.0787,123.59819 211.7942,181.67879 v 0 c 96.7195,77.25288 195.1095,152.36874 306.2275,208.10269 v 0 c 62.2027,31.19967 126.6919,57.82407 189.9075,87.03857 v 0 c 25.2059,11.6504 48.3285,26.638 64.3129,51.9308 v 0 c -12.6898,-3.9392 -25.9217,-6.6584 -37.9784,-12.0275 v 0 c -51.8996,-23.1002 -102.6258,-49.0422 -155.3018,-70.1527 v 0 C 2535.8126,998.51739 2420.4363,953.11114 2311.8101,891.99679 v 0 C 2205.6062,832.2499 2101.4566,770.05148 2019.4841,677.72875 v 0 c -79.7423,-89.81562 -139.2907,-189.70246 -146.616,-313.35183 v 0 c -2.8753,-48.5359 5.8174,-95.46137 27.1465,-139.73672 v 0 c -21.1952,102.37167 14.7155,188.67844 73.6793,268.62579"
             style="display:inline;fill:#006b60;fill-opacity:1;stroke:none;stroke-width:2.23061" />
          <path
             id="path496"
             d="m 1742.1051,934.47438 c 55.2457,46.91188 117.1229,83.22842 181.8619,115.15742 v 0 c 110.5803,54.543 228.3745,89.1265 345.5776,125.3493 v 0 c 7.1444,2.2083 15.342,1.7488 15.3018,12.5182 v 0 c -0.067,18.5497 7.3722,35.7077 12.5919,55.4998 v 0 c -44.7282,-15.8774 -88.5041,-24.6035 -132.5675,-32.4911 v 0 c 9.884,3.3191 19.741,6.7098 29.6516,9.942 v 0 c 31.2597,10.1871 62.611,20.1111 93.7704,30.5949 v 0 c 9.3373,3.1407 22.6919,9.9642 19.4821,18.3936 v 0 c -4.1534,10.9123 1.5526,10.7427 6.7409,14.305 v 0 c 20.7292,14.2247 41.2819,28.7013 64.391,44.8219 v 0 c -7.6286,-0.3345 -12.2236,0.1322 -16.4997,-0.8253 v 0 c -86.8266,-19.3661 -173.6687,-38.8371 -258.1399,-67.1102 v 0 c -169.1182,-56.6041 -303.749,-157.044 -393.9258,-313.04622 v 0 c -14.0887,-24.37618 -26.0046,-49.88996 -30.3655,-78.29228 v 0 c 17.6621,24.99399 39.1896,45.70304 62.1292,65.18298"
             style="display:inline;fill:#006b60;fill-opacity:1;stroke:none;stroke-width:2.23061" />
          <path
             id="path497"
             d="m 2124.2402,825.55139 c 59.6422,50.24663 130.9882,77.96874 201.9528,106.36219 v 0 c 141.0639,56.44565 279.1388,119.77262 418.1929,180.84012 v 0 c 7.6509,3.3615 17.7087,5.0745 22.8682,17.0084 v 0 c -56.3319,-17.2805 -109.7817,-33.8964 -163.3721,-50.0549 v 0 c -53.4501,-16.1183 -107.0383,-31.7818 -160.5664,-47.6415 v 0 c 28.3446,14.3899 57.6101,25.8351 87.5718,35.0096 v 0 c 70.8642,21.6927 141.9917,42.5244 213.1594,63.2088 v 0 c 18.7662,5.454 33.031,14.5837 37.8178,34.7642 v 0 c -8.251,-0.9726 -16.3303,-2.2797 -24.4586,-2.8307 v 0 c -66.5903,-4.5193 -133.2658,-7.9968 -199.7559,-13.6537 v 0 c -39.9723,-3.3995 -76.3716,-19.4599 -111.5862,-38.2037 v 0 c 44.4137,9.2348 88.7359,15.2352 140.1894,7.9165 v 0 c -80.7503,0.7695 -148.4583,-28.1525 -216.2399,-56.2738 v 0 c -87.1923,-36.1739 -169.3725,-80.17273 -232.4878,-153.10706 v 0 c -36.0154,-41.61869 -63.1886,-87.47566 -72.7937,-146.71177 v 0 c 21.9048,22.85044 38.1635,45.38636 59.5083,63.36732"
             style="display:inline;fill:#006b60;fill-opacity:1;stroke:none;stroke-width:2.23061" />
          <path
             id="path498"
             d="m 2625.1174,896.04083 c 18.9132,12.02087 39.069,22.13893 58.9417,32.59375 v 0 c 47.0033,24.73085 94.9994,47.53662 140.4258,75.29652 v 0 c 45.6184,27.8827 87.2415,60.0792 121.7401,101.3724 v 0 c 40.9139,48.9752 65.7048,106.6611 90.1768,164.4185 v 0 c 29.0249,68.511 63.035,134.0709 106.7459,194.4691 v 0 c 9.5226,13.1584 20.2362,25.9331 24.2178,42.2991 v 0 c -28.7279,15.8685 -70.8978,7.4658 -92.4522,-21.3224 v 0 c -59.236,-79.1176 -115.3092,-161.0993 -153.8049,-252.1061 v 0 c -41.63,-98.4056 -104.3993,-173.0731 -200.9582,-219.9449 v 0 c -43.0508,-20.89428 -84.8055,-44.66797 -124.3208,-72.07104 v 0 c -55.3593,-38.3934 -84.8368,-89.48774 -77.9621,-158.8665 v 0 c 18.0725,55.17418 62.156,85.20278 107.2501,113.86157 m 224.3169,159.78537 c 95.3118,72.5886 124.2294,188.6338 186.6843,282.7101 v 0 c -44.3602,-105.8091 -73.6926,-221.3215 -186.6843,-282.7101"
             style="display:inline;fill:#006b60;fill-opacity:1;stroke:none;stroke-width:2.23061" />
          <path
             id="path499"
             d="m 2899.4312,1211.6636 c -4.0106,-0.667 -7.9387,-1.3228 -13.0201,-2.1704 v 0 c 16.647,21.7998 44.0769,35.6831 40.9116,70.505 v 0 c -34.2554,-12.1969 -64.4289,-27.2847 -98.149,-31.2083 v 0 c -28.9825,-3.3727 -57.7238,-8.9226 -86.7373,-11.876 v 0 c -41.5541,-4.2336 -82.0887,-13.1941 -122.5834,-23.4257 v 0 c 34.2734,12.9062 68.6025,25.817 104.0425,33.8095 v 0 c 51.2796,11.5678 106.7259,9.1699 150.3454,52.1582 v 0 c -1.3294,-8.4027 -2.0834,-13.1807 -2.8461,-18.0032 v 0 c 30.992,-3.3749 81.6224,24.1418 90.5916,49.4393 v 0 c -5.1569,-2.0812 -9.6941,-3.9126 -14.5791,-5.8845 v 0 c 24.6594,69.9208 82.4322,115.0706 120.9145,177.1931 v 0 c -3.5709,-0.1123 -7.4835,-0.05 -11.3781,0.021 v 0 c -13.9235,0.2208 -27.6061,0.4416 -24.7153,-7.3656 v 0 c 6.3148,-17.0419 -5.1572,-19.645 -10.9925,-23.892 v 0 c -32.3749,-23.5463 -54.7079,-55.1051 -74.8883,-88.6512 v 0 c -16.0291,-26.6403 -38.6006,-46.8718 -62.0066,-66.5727 v 0 c -12.6763,16.2969 -7.1489,25.4089 7.9902,34.0457 v 0 c 32.518,18.5522 47.5834,51.6611 68.9616,82.2852 v 0 c -118.6305,0.4105 -183.5795,-26.8007 -205.8431,-86.3337 v 0 c 42.6315,8.046 84.2569,15.8998 128.2601,24.2067 v 0 c -39.9346,-38.4245 -86.6257,-41.8931 -133.9772,-33.4122 v 0 c -35.3931,6.3394 -82.1935,-7.6378 -101.7046,-37.2646 v 0 c 15.4536,-9.6498 33.6131,-7.0556 51.8886,-9.8638 v 0 c -7.4192,-8.6192 -15.3022,-13.0759 -24.3963,-13.5711 v 0 c -51.1747,-2.7727 -92.0842,-29.259 -132.3177,-57.0345 v 0 c -20.7201,-14.3071 -37.5324,-32.2167 -45.2926,-59.6242 v 0 c 40.2827,10.8429 80.6032,12.8885 120.7832,13.7918 v 0 c 27.7153,0.62 52.7606,6.6405 77.5383,18.9358 v 0 c 32.1007,15.9286 65.0379,30.4298 98.4547,43.3741 v 0 c 26.0848,10.1046 53.3429,17.8783 83.8576,10.0489 v 0 c -21.1796,-44.2241 -65.0625,-69.0196 -89.2557,-111.2295 v 0 c 70.1706,8.0235 102.8112,32.6406 110.1431,77.5784"
             style="display:inline;fill:#006b60;fill-opacity:1;stroke:none;stroke-width:2.23061" />
          <path
             id="path500"
             d="m 1816.2819,1426.9956 c 58.9551,18.465 119.7951,26.6246 181.4424,27.7644 v 0 c 87.728,1.6216 175.4755,1.2736 263.0339,8.947 v 0 c 45.8099,4.0129 84.7721,23.0266 127.4682,50.7153 v 0 c -90.3711,-4.9143 -173.6978,3.8812 -256.895,15.6431 v 0 c 29.1405,0.2031 58.2969,-0.814 87.4511,-1.8312 v 0 c 58.2881,-2.0322 116.5629,-4.0665 174.6457,3.6424 v 0 c -17.6866,4.9521 -35.4222,7.5908 -52.8946,11.4319 v 0 c -101.9187,22.3955 -203.7708,41.0812 -309.1225,24.4655 v 0 c -112.0861,-17.6799 -211.0873,-60.3894 -290.4925,-143.1072 v 0 c -20.3588,-21.2064 -41.525,-42.2744 -53.7401,-70.4427 v 0 c 35.8239,37.5545 81.2189,57.7751 129.1034,72.7715"
             style="display:inline;fill:#006b60;fill-opacity:1;stroke:none;stroke-width:2.23061" />
          <path
             id="path501"
             d="m 2890.6783,1795.0554 c -5.5208,2.1325 -9.5247,4.3318 -13.8029,5.2396 v 0 c -135.5432,28.7104 -261.4345,82.196 -383.6386,146.3149 v 0 c -65.2631,34.2442 -134.8046,53.858 -209.963,39.9101 v 0 c -43.8516,-8.1373 -81.1362,-28.1413 -111.6421,-60.6569 v 0 c 39.8767,14.6505 79.5304,26.6534 122.61,15.9956 v 0 c 31.463,-7.7848 57.0011,-25.989 82.1022,-44.9202 v 0 c 40.258,-30.354 82.6441,-56.8247 130.1874,-74.3015 v 0 c 74.2683,-27.2982 150.1068,-43.7132 230.1032,-32.3438 v 0 c -59.0532,11.898 -117.4974,25.3085 -171.0766,51.3865 v 0 c 17.838,-5.1885 35.6315,-10.5286 53.5234,-15.5161 v 0 c 17.1868,-4.7914 34.338,-10.0825 58.0672,-10.8118 v 0 c -8.4271,3.8744 -11.4251,5.2553 -15.3465,7.0576 v 0 c 7.4568,3.5824 13.3815,1.0217 19.6158,-0.667 v 0 c 59.2117,-16.027 119.5431,-26.2608 180.2157,-34.8063 v 0 c 2.5832,-0.3637 5.0814,-0.58 7.5062,-0.58 v 0 c 7.729,0 14.7376,2.186 21.5386,8.6993"
             style="display:inline;fill:#006b60;fill-opacity:1;stroke:none;stroke-width:2.23061" />
          <path
             id="path502"
             d="m 2785.0923,1854.4678 c -30.9319,20.129 -63.0215,36.6044 -87.1389,63.5501 v 0 c 1.0863,1.9204 2.1728,3.8367 3.2614,5.7573 v 0 c 33.0307,-21.0504 66.0594,-42.0962 101.1671,-64.4692 v 0 c -36.9413,54.4938 -71.7545,106.5228 -123.1232,144.8582 v 0 c -61.1745,45.6516 -120.4596,94.3278 -193.8223,119.8463 v 0 c -71.9194,25.0162 -140.7449,20.0218 -204.8125,-26.0425 v 0 c 85.4726,25.1165 146.743,-8.9135 201.4734,-72.7113 v 0 c 74.2413,-86.541 173.0909,-136.1654 280.6822,-169.3634 v 0 c 4.2227,-1.3028 8.4429,-4.207 13.629,-4.207 v 0 c 2.6097,0 5.4651,0.736 8.6838,2.7815"
             style="display:inline;fill:#006b60;fill-opacity:1;stroke:none;stroke-width:2.23061" />
          <path
             id="path503"
             d="m 2568.5066,1707.8474 c 25.8664,0.7473 52.3726,1.7222 76.6862,14.2603 v 0 c -62.6243,2.8531 -125.2288,2.1392 -186.0129,19.5402 v 0 c 49.9567,-2.5631 99.7239,-10.2675 149.993,-4.9341 v 0 c -43.0643,0.5911 -85.6086,5.7216 -127.9211,13.5197 v 0 c 5.9245,0.9994 11.9226,1.7866 17.6507,0.8744 v 0 c 41.5275,-6.6227 83.2956,-8.492 125.2914,-8.0836 v 0 c 18.1483,0.176 32.2658,7.3141 48.4622,21.0345 v 0 c -115.3985,14.6975 -223.0835,44.851 -330.4875,76.3605 v 0 c -47.8666,14.0419 -97.0204,19.0851 -146.7742,15.1905 v 0 c -59.2741,-4.6374 -111.4613,-25.5449 -154.0438,-68.975 v 0 c 4.2204,-2.9154 6.6072,-1.4231 9.4355,-0.1588 v 0 c 62.0199,27.7041 124.5017,28.5339 187.3,2.7301 v 0 c 24.2066,-9.9461 48.0675,-20.7802 72.4837,-30.1777 v 0 c 78.5266,-30.2182 159.0337,-51.391 243.4757,-51.3889 v 0 c 4.8048,0 9.6319,0.069 14.4611,0.2075"
             style="display:inline;fill:#006b60;fill-opacity:1;stroke:none;stroke-width:2.23061" />
          <path
             id="path504"
             d="m 3089.3543,2001.7661 c 0.1919,0.089 0.021,0.1808 -0.9479,0.04 v 0 c -17.7223,84.1743 -37.4051,168.179 -68.6962,248.8001 v 0 c -31.9378,82.2916 -85.2115,148.9602 -150.7982,206.8468 v 0 c 19.3796,-58.0383 31.543,-117.0335 38.4335,-177.3314 v 0 c 10.3477,-90.5114 36.4371,-175.219 92.6706,-248.9741 v 0 c 9.3464,-12.2572 21.2065,-21.9136 33.3165,-16.5957 v 0 c 23.2094,10.1893 37.2936,-5.0436 54.5294,-12.7457 v 0 c 0.2544,-0.1135 0.54,-0.1523 0.7987,-0.1523 v 0 c 0.3056,0 0.5731,0.055 0.6936,0.1122"
             style="display:inline;fill:#006b60;fill-opacity:1;stroke:none;stroke-width:2.23061" />
          <path
             id="path505"
             d="m 2601.1516,1291.2405 c -3.9614,2.1192 -7.6577,0.7272 -11.4186,-0.6625 v 0 c -4.7086,-1.7442 -9.5225,-3.4886 -15.0922,1.6729 v 0 c 87.0563,26.502 157.4768,79.1267 229.4474,132.9692 v 0 c -23.437,0.9836 -44.2621,-4.2405 -64.1234,-12.1346 v 0 c -72.4815,-28.8084 -147.1422,-49.1716 -223.8574,-63.2868 v 0 c -50.9605,-9.3753 -99.1241,-27.8115 -143.6692,-55.1163 v 0 c -37.8936,-23.2272 -59.7313,-56.6151 -67.7996,-101.0824 v 0 c 1.3028,0 2.5853,0 3.8834,0 v 0 c 108.9767,0 207.8061,26.4551 292.6296,97.6517"
             style="display:inline;fill:#006b60;fill-opacity:1;stroke:none;stroke-width:2.23061" />
          <path
             id="path506"
             d="m 2743.2127,2040.1885 c 1.916,2.2529 3.8277,4.5058 5.7437,6.7564 v 0 c 32.3505,-11.2733 50.1776,-43.7534 84.1253,-63.0481 v 0 c -14.1934,28.9087 -24.3047,52.7628 -32.0896,77.5695 v 0 c -1.974,6.2858 -4.8293,12.2684 -12.2974,14.9293 v 0 c -14.6149,5.2086 -24.5768,16.8835 -35.0874,27.459 v 0 c -29.636,29.8209 -60.9961,57.6791 -94.5624,82.9541 v 0 c -34.5298,26.0024 -71.946,46.1358 -116.043,49.4259 v 0 c -28.9958,2.166 -56.8518,-1.8291 -83.7706,-22.2504 v 0 c 62.4079,-2.6946 95.1914,-15.9687 117.9436,-57.6857 v 0 c 38.8638,-71.2613 101.4236,-114.6712 168.5315,-153.7315 v 0 c 16.8925,-9.8325 35.1411,-17.8293 59.5685,-20.6197 v 0 c -22.7745,21.3714 -42.4173,39.8073 -62.0622,58.2412"
             style="display:inline;fill:#006b60;fill-opacity:1;stroke:none;stroke-width:2.23061" />
          <path
             id="path507"
             d="m 2919.2681,2124.2735 c -27.4522,50.963 -56.807,100.759 -104.4173,136.2011 v 0 c -55.9236,41.6277 -117.8364,55.7789 -186.5816,38.9222 v 0 c 63.1822,-12.2976 96.8531,-55.6962 121.3988,-110.1276 v 0 c 13.3034,-29.4933 34.3402,-54.2351 53.8625,-79.9163 v 0 c 11.8401,-15.574 26.0579,-23.7983 44.5743,-27.0192 v 0 c 14.3095,-2.4894 28.4627,-5.8732 44.3826,-9.2125 v 0 c -23.2005,28.119 -43.4746,56.1333 -59.9746,86.9136 v 0 c 41.5609,-42.7654 75.7517,-93.4181 135.9894,-117.3168 v 0 c -19.683,26.2966 -34.3605,53.9496 -49.2341,81.5555"
             style="display:inline;fill:#006b60;fill-opacity:1;stroke:none;stroke-width:2.23061" />
          <path
             id="path508"
             d="m 3090.6192,2237.3166 c 0,-12.2708 -0.03,-18.8332 0,-25.3934 v 0 c 0.038,-7.4993 0.2207,-14.9986 0.1829,-22.498 v 0 c -0.065,-11.6637 2.4715,-21.124 16.9103,-21.1684 v 0 c 13.8253,-0.045 17.1712,8.8242 18.2307,20.4657 v 0 c 1.151,12.6565 2.7191,25.3086 4.8517,37.8379 v 0 c 13.7562,80.8063 -11.3382,147.7647 -72.97,200.7508 v 0 c -22.855,19.6493 -49.745,31.0543 -85.4414,26.7092 v 0 c 50.3159,-26.8722 68.7073,-68.9548 75.4303,-118.7712 v 0 c 3.7408,-27.7086 1.5146,-55.4307 3.1161,-83.0925 v 0 c 2.2307,-38.5918 12.1792,-75.1292 29.5156,-111.7848 v 0 c 10.4146,31.4137 0.7717,62.0868 10.1648,96.9447"
             style="display:inline;fill:#006b60;fill-opacity:1;stroke:none;stroke-width:2.23061" />
          <path
             id="path509"
             d="m 2834.0075,1698.4566 c -11.2045,5.8039 -17.8048,9.9419 -16.5891,18.8642 v 0 c 3.1854,23.4169 19.9885,38.6901 35.2547,55.5176 v 0 c -61.0429,10.0222 -119.0833,11.1465 -172.9884,-33.1154 v 0 c 12.2193,-0.7319 19.7834,-1.1823 34.0079,-2.0343 v 0 c -31.8285,-11.2916 -51.9396,-29.1342 -77.565,-44.6547 v 0 c 22.3196,-9.2838 43.9611,-12.5629 65.3436,-12.5629 v 0 c 44.0902,0 87.0652,13.9503 132.5363,17.9855"
             style="display:inline;fill:#006b60;fill-opacity:1;stroke:none;stroke-width:2.23061" />
          <path
             id="path510"
             d="m 1850.7048,524.37633 c 33.1848,106.74815 94.6358,194.52946 179.4705,266.61842 v 0 c 14.8023,12.5783 29.7318,25.42663 39.6,48.257 v 0 C 1932.4789,749.8689 1855.1503,628.1712 1836.4668,470.46692 v 0 c 4.7066,17.98094 8.7261,36.17839 14.238,53.90941"
             style="display:inline;fill:#006b60;fill-opacity:1;stroke:none;stroke-width:2.23061" />
          <path
             id="path511"
             d="m 2858.3679,1241.3218 c -34.813,-2.3199 -119.3956,-39.966 -141.4319,-62.7986 v 0 c 8.5521,-0.9657 16.8969,-1.4721 25.0208,-1.4698 v 0 c 48.5179,0 88.9926,18.0612 116.4111,64.2684"
             style="display:inline;fill:#006b60;fill-opacity:1;stroke:none;stroke-width:2.23061" />
        </g>
        <g
           id="g790"
           transform="matrix(-1,0,0,1,7058.7728,-73.55913)"
           style="fill:#006b60;fill-opacity:1">
          <path
             id="path512"
             style="display:inline;fill:#006b60;fill-opacity:1;stroke:none;stroke-width:2.23061"
             d="m 2806.0561,1441.2898 c 22.4446,-0.5746 44.8914,1.0315 67.4947,4.8693 24.7174,4.1958 54.5768,0.039 63.334,35.0755 -4.5415,0.7205 -9.4692,1.4976 -18.2935,2.8917 29.966,5.251 45.0692,29.625 72.5304,36.9794 -19.8837,-22.3998 -42.0229,-40.4419 -50.5237,-69.7634 22.0742,-2.777 35.2246,9.9569 49.2128,20.9359 32.2726,25.3308 56.8547,60.2697 96.3187,76.6312 26.8877,11.151 48.404,29.5051 67.7209,50.9436 16.6607,18.485 34.9385,35.1967 58.5407,44.6366 5.5899,2.2329 11.1354,7.942 24.8269,-3.1732 -63.965,-19.9283 -102.0824,-65.709 -144.7561,-114.5014 45.1072,0.4104 82.9881,4.4202 119.0638,18.5913 31.639,12.4288 33.1255,15.5971 29.2554,47.5996 -0.4104,3.3816 -0.055,6.8549 -0.055,10.2857 11.0302,-35.4914 31.4008,-65.2647 53.6691,-94.2047 -20.5128,10.6112 -30.7747,30.9689 -45.6059,48.022 -10.6557,-15.4605 -27.1321,-20.8821 -40.1387,-32.6686 8.869,-7.8027 17.1859,-15.337 25.7269,-22.6021 186.5766,-87.2858 383.95,-130.0989 311.6226,223.2427 -14.2826,-22.4623 -21.0002,-41.7027 -29.5278,-60.2993 1.528,38.5539 39.0259,82.1453 44.2696,69.491 l -69.7125,141.2183 c 70.7456,18.5713 59.7995,283.9606 55.3537,291.056 -22.4512,-47.657 -61.8724,-81.9065 -96.2194,-120.2731 -61.3752,-68.5644 -103.1049,-146.3985 -113.4974,-243.8117 -7.9455,82.9745 25.0558,147.6433 69.784,207.1831 31.0502,41.333 66.2385,79.5311 98.6494,119.876 17.3229,21.5635 33.3769,44.3051 41.3111,77.0951 4.1914,-10.1281 9.0959,-19.7891 14.3311,-29.2323 v 404.9966 c -1.2553,0.8998 -2.7826,1.6944 -5.1578,2.1392 -9.6989,-32.5833 16.0791,-102.1929 -10.2694,-50.2581 -7.3409,-5.5876 0.024,-15.7357 -6.9117,-21.5822 -4.9454,20.5105 2.2598,42.049 -7.5994,64.0563 -24.0238,-36.0222 -32.8199,-75.035 -39.1303,-114.7553 -6.5224,-41.0723 -11.0129,-82.6489 -37.914,-117.0606 23.504,49.1717 23.6017,103.1994 34.4892,154.8201 8.5099,40.3384 30.0544,82.3548 58.3586,112.2651 5.2231,-4.9462 9.823,-10.0954 14.1348,-15.3396 0.1724,86.7265 -0.7763,173.4071 0,260.1321 -2.8777,8.0725 -5.693,16.174 -8.3563,24.3583 -1.5392,4.7245 -2.8992,10.1821 1.0155,16.8651 2.0997,-8.1701 4.5815,-16.1075 7.3408,-23.876 -7.6507,98.9253 -45.3654,118.3749 -69.6433,73.3634 -9.7654,-22.7009 -12.8518,-44.9783 -22.6197,-67.6771 -3.2255,-25.7881 -17.6287,-47.0743 -33.3547,-76.7443 24.7531,21.3046 39.6582,44.6494 52.5982,68.9809 12.4668,23.4415 22.6286,48.1062 33.8062,72.2304 1.3472,-4.4881 0.5006,-8.0467 -0.6392,-11.5087 -20.4011,-61.9707 -59.1092,-112.3112 -101.3034,-160.6173 -26.5978,-30.4499 -53.1044,-61.0676 -67.407,-100.0387 -6.0987,-16.6203 -6.1893,-31.6727 3.5607,-46.9904 34.2464,-53.7935 47.0571,-112.7698 42.1028,-176.0791 -0.7071,-9.0207 -2.7277,-18.764 2.3492,-28.2954 35.8525,37.3271 49.3082,45.9696 71.0856,44.2766 -32.3504,-33.6399 -68.3251,-63.082 -80.2589,-110.2506 16.355,117.4775 -5.8611,224.4269 -82.2529,318.1259 10.6177,-1.8336 11.5951,-11.9339 20.3613,-12.4826 -10.988,58.5803 -51.3132,127.6006 -91.627,155.5724 10.6511,-33.7737 23.8309,-65.4111 30.0654,-99.2495 6.0828,-33.002 9.6085,-67.3563 36.6079,-96.787 v 32.6246 c 22.797,-67.3332 19.603,-135.7273 9.6279,-204.5683 -6.5024,33.5998 -6.9309,68.3571 -23.9013,99.501 -17.2226,31.6055 -40.0594,57.7915 -69.4634,78.3689 -32.2747,22.5872 -70.2413,36.5369 -93.2055,34.2817 166.6334,-115.7843 159.2943,-295.477 89.34,-374.2689 15.1971,49.4638 12.0718,93.8246 -22.4983,132.3496 19.0182,-42.9729 10.0534,-83.1963 -11.6056,-122.0224 -10.5842,-18.9734 -24.3441,-36.4252 -33.01,-56.1706 -25.4402,-57.9936 -16.8759,-72.6156 27.5914,-106.7104 -0.328,26.0937 -6.1618,52.287 7.7125,76.4511 -3.8388,-21.697 -5.9181,-43.0198 8.1348,-65.6139 22.4176,25.505 52.8107,42.477 49.4713,83.2036 -1.8803,22.9572 12.7138,40.9216 30.4761,55.0145 23.3567,18.532 36.1788,43.5872 44.1935,71.4318 2.7414,9.5247 3.5314,19.6078 5.6147,31.787 26.0981,-20.0265 36.9013,-45.5698 47.3852,-78.0251 10.0824,28.6054 25.1585,45.7464 48.4996,55.4853 -41.1771,-34.6346 -48.2724,-85.9738 -65.2563,-132.8434 -1.0707,47.8398 11.4409,96.7379 -24.6883,138.0889 -1.4232,-46.905 -27.5408,-80.1022 -55.9029,-112.5375 -12.4491,-14.238 -17.9803,-32.0072 -20.1952,-50.7843 57.6145,-9.8483 88.9159,-69.7933 69.6479,-135.5896 0.6336,30.787 -1.1725,58.3697 -18.2681,83.1851 -16.8767,-23.5731 -32.3807,-45.2261 -47.8813,-66.8787 3.0937,25.6364 17.9938,45.7258 28.0069,67.9426 9.2971,20.6264 3.4006,29.9308 -19.6436,32.3154 -24.3004,2.5161 -36.6923,-12.809 -48.4788,-30.0561 -21.7285,-31.7907 -25.0544,-69.5125 -34.1664,-105.635 -2.2329,6.801 -2.8252,13.4802 -4.0408,20.0405 -4.3207,23.2631 -11.5365,45.1893 -31.3601,60.3084 -18.3624,14.006 -32.8355,11.444 -45.4095,-7.514 -24.4409,-36.8497 -15.2919,-108.8775 16.3873,-139.7736 17.8337,-17.3965 37.4247,-34.5546 40.8263,-69.0063 -43.3941,48.8437 -89.3251,82.6396 -152.0946,86.3514 -3.7762,-24.7955 7.0215,-47.1586 11.4003,-71.9072 -38.7323,91.011 -110.5088,133.2262 -205.9968,145.4991 23.825,-97.8993 91.8295,-153.5412 172.6267,-198.3743 -74.4065,20.6688 -141.0449,63.7236 -222.8526,77.7296 22.7634,-45.1209 43.904,-84.3405 82.2483,-111.1413 38.4534,-26.8743 82.4854,-33.7564 127.7779,-36.7186 24.7821,-1.6196 50.0876,-1.1797 72.4495,-15.2012 -26.1071,5.175 -52.3574,4.5448 -78.3551,2.4324 -40.8626,-3.3213 -80.2621,-12.6538 -111.5174,-41.5603 -27.2426,-25.1948 -26.1722,-33.3412 3.5307,-51.9244 0.9167,-0.5734 0.9064,-2.6361 1.3593,-4.1124 -23.4191,-4.9076 -46.9347,-9.1498 -70.0818,-14.8781 -23.1091,-5.717 -45.8476,-12.9212 -73.5919,-20.862 96.3244,-38.0031 189.4791,-41.4197 286.1382,-22.2721 0,9.0049 -0.3594,17.1858 0.06,25.3252 1.9252,37.5122 36.6777,78.5786 73.5295,83.5798 27.2337,3.6939 54.9901,3.541 82.5137,5.1048 -19.7454,-7.2139 -40.086,-11.5968 -59.983,-17.4812 -37.2044,-10.999 -65.0958,-32.9656 -78.6066,-70.5849 -3.0202,-8.4139 -7.6703,-17.96 1.2276,-24.8014 7.8383,-6.0293 15.8548,-0.8876 22.2745,4.6108 7.1735,6.1454 15.2604,6.0049 23.3844,4.0687 18.0299,-4.294 35.9218,-9.1742 59.4593,-15.2659 -24.9272,-2.253 -44.1429,-3.7242 -63.2971,-5.7694 -55.0559,-5.8822 -110.255,-11.1509 -162.505,-31.5007 -17.2134,-6.7074 -33.9268,-14.1517 -42.6195,-33.1878 23.0489,-6.0026 41.8538,-17.2229 61.2178,-30.2385 -89.5122,23.5731 -155.1441,-25.0092 -224.6412,-69.1864 38.0822,-12.8287 75.4807,-19.8422 112.8883,-20.7997 z m 543.877,51.8413 c -24.6326,31.2864 -48.7497,62.2511 -67.0586,97.2025 -8.6192,16.4574 -13.2914,33.3128 -6.5795,51.6105 9.8303,26.7808 0.6505,54.7256 5.1786,81.8052 1.2603,7.5372 -1.9847,16.7813 13.0297,24.7045 -19.5782,-95.3631 6.8493,-177.8512 55.4298,-255.3227 z m 64.2132,110.7421 c -22.0183,35.5537 -48.7372,68.3874 -63.8139,107.9428 -5.6101,14.7153 -13.4368,29.6842 -5.7948,51.4927 12.5026,-38.2705 27.0694,-70.4335 51.2782,-99.1593 2.5406,10.3366 -5.8921,19.1233 2.3077,29.1053 z m 48.8136,5.4255 c -52.8141,146.4128 -62.1677,291.9454 13.0687,434.9812 -47.4541,-119.2352 -48.9231,-241.4005 -22.9229,-365.6033 4.2181,20.5819 12.3699,39.8697 17.0497,60.0523 4.7044,20.2963 9.0256,40.8381 9.3649,61.9285 6.7632,-27.6171 1.547,-55.6203 -5.9679,-80.9513 -10.8964,-36.7338 -17.8464,-72.3041 -10.5925,-110.4074 z m -35.2001,896.3238 c 1.6038,53.5035 39.0916,130.4415 102.6326,207.1299 -27.4232,-72.2561 -83.0009,-130.7469 -102.6326,-207.1299 z m -28.5008,84.3829 c 1.4367,37.084 9.8232,72.1517 28.6184,104.5804 16.5622,28.574 35.7436,55.3435 54.7283,82.2806 25.5629,36.2674 47.8628,74.1538 57.6639,118.2375 -1.7688,-32.8325 -12.2733,-63.3701 -28.6439,-91.1769 -21.2421,-36.078 -45.5414,-70.3432 -67.7717,-105.8589 -20.9141,-33.4124 -36.8659,-69.0648 -44.595,-108.0627 z" />
          <path
             id="path513"
             d="m 1981.2156,1288.8025 c 118.8984,23.2787 239.3067,38.8081 358.9747,58.2144 v 0 c 84.9103,13.7696 171.3845,18.8956 254.1044,44.862 v 0 c 38.6187,12.1236 77.5563,23.6758 112.8199,46.571 v 0 c -83.1571,-4.2406 -164.6301,-24.403 -247.986,-22.4737 v 0 c 41.1124,7.3277 82.0865,16.9973 123.5491,20.089 v 0 c 70.8954,5.2865 120.6136,47.7085 174.5544,90.9822 v 0 c -43.5684,-7.5618 -84.2213,-6.6494 -124.4437,-3.4999 v 0 c -107.0716,8.3849 -204.5895,-18.563 -295.226,-74.3306 v 0 c -13.3746,-8.2287 -27.3092,-15.554 -41.1301,-23.0311 v 0 c -1.2581,-0.6825 -3.5668,0.5734 -5.1171,0.8767 v 0 c -0.7094,6.6606 8.5209,6.703 6.9349,13.0156 v 0 c -99.4093,8.6995 -240.9237,-8.6837 -309.7649,-37.4743 v 0 c -96.6613,-40.4253 -178.1188,-101.3389 -244.7739,-181.8907 v 0 c -24.1576,-29.1943 -45.7744,-60.2935 -60.3806,-101.8008 v 0 c 97.5202,104.2099 160.2117,142.9355 297.8849,169.8901"
             style="display:inline;fill:#006b60;fill-opacity:1;stroke:none;stroke-width:2.23061" />
          <path
             id="path514"
             d="m 1678.7425,537.10419 c 11.1865,64.30854 46.2942,114.47288 91.4306,159.02928 v 0 c 85.613,84.51119 189.9387,141.60809 296.1538,193.67726 v 0 c 52.2675,25.62537 83.6613,68.17424 124.3386,109.68145 v 0 c -46.2139,-15.97116 -88.2629,-30.50131 -130.3122,-45.03381 v 0 c 6.8456,6.8123 14.8068,10.51505 23.0199,13.52637 v 0 c 41.4069,15.20164 85.4301,25.52718 123.7855,46.31866 v 0 c 72.437,39.2632 146.1029,75.7584 220.2129,111.5552 v 0 c 12.2235,5.9045 22.9705,14.2425 28.3352,27.51 v 0 c 0.6805,1.6819 -0.5219,4.1268 -0.7851,5.7952 v 0 c -2.795,1.49 -5.5609,0.6134 -8.309,-0.2653 v 0 c -3.4397,-1.0998 -6.8504,-2.2017 -10.2474,1.3493 v 0 c 14.9629,9.0875 31.2218,15.8106 43.9228,36.9481 v 0 c -86.3222,-37.528 -182.0713,-35.2215 -254.5462,-104.056 v 0 c 17.662,33.883 23.7272,39.464 68.9527,68.7408 v 0 c -2.67,-0.716 -5.514,-1.0617 -7.9901,-2.2038 v 0 c -64.536,-29.7966 -130.0536,-57.6747 -193.3316,-89.945 v 0 C 1954.5264,998.92349 1833.9283,904.78706 1741.5141,778.09055 v 0 c -55.3103,-75.82517 -87.4644,-160.24033 -78.5822,-256.44883 v 0 c 2.5451,-27.57271 9.0942,-53.8671 25.487,-77.09664 v 0 c -8.4897,30.4144 -15.2396,60.58336 -9.6764,92.55911"
             style="display:inline;fill:#006b60;fill-opacity:1;stroke:none;stroke-width:2.23061" />
          <path
             id="path515"
             d="m 2760.5445,1554.4661 c 45.8613,3.9638 85.8271,19.2167 118.4967,54.563 v 0 c -39.8476,5.233 -77.6543,6.1096 -114.9433,-11.4164 v 0 c -52.821,-24.8221 -109.0012,-31.186 -166.8299,-23.7514 v 0 c 63.0104,-1.6038 120.4577,20.0934 180.2982,41.5696 v 0 c -49.0043,18.5096 -94.8054,39.4396 -143.4617,50.8358 v 0 c -135.1394,31.6499 -272.1392,45.3528 -410.6445,30.8894 v 0 c -83.7461,-8.7461 -157.4542,-44.0791 -228.1714,-97.6851 v 0 c 17.5526,1.8423 29.4262,3.0916 41.2975,4.3317 v 0 c 84.094,8.7998 165.8637,-8.2888 247.241,-24.637 v 0 c 106.7035,-21.434 213.8087,-31.5007 321.4624,-31.4985 v 0 c 51.6186,0 103.3687,2.3132 155.255,6.7989 m -70.3245,56.3051 c -72.234,-11.5056 -138.0793,-9.9306 -209.76,-0.2921 v 0 c 20.8539,3.1296 40.2044,1.4164 59.6509,-0.2967 v 0 c 19.4511,-1.7109 39.0001,-3.4241 60.2512,-0.2922 v 0 c -79.0062,8.2174 -150.9925,20.149 -222.642,32.8724 v 0 c 102.519,-7.7023 203.8088,-24.3115 312.4999,-31.9914"
             style="display:inline;fill:#006b60;fill-opacity:1;stroke:none;stroke-width:2.23061" />
          <path
             id="path516"
             d="m 1973.6939,493.26599 c 28.6366,38.83055 62.8008,72.53514 98.408,104.87226 v 0 c 68.8879,62.55745 139.0787,123.59819 211.7942,181.67879 v 0 c 96.7195,77.25288 195.1095,152.36874 306.2275,208.10269 v 0 c 62.2027,31.19967 126.6919,57.82407 189.9075,87.03857 v 0 c 25.2059,11.6504 48.3285,26.638 64.3129,51.9308 v 0 c -12.6898,-3.9392 -25.9217,-6.6584 -37.9784,-12.0275 v 0 c -51.8996,-23.1002 -102.6258,-49.0422 -155.3018,-70.1527 v 0 C 2535.8126,998.51739 2420.4363,953.11114 2311.8101,891.99679 v 0 C 2205.6062,832.2499 2101.4566,770.05148 2019.4841,677.72875 v 0 c -79.7423,-89.81562 -139.2907,-189.70246 -146.616,-313.35183 v 0 c -2.8753,-48.5359 5.8174,-95.46137 27.1465,-139.73672 v 0 c -21.1952,102.37167 14.7155,188.67844 73.6793,268.62579"
             style="display:inline;fill:#006b60;fill-opacity:1;stroke:none;stroke-width:2.23061" />
          <path
             id="path517"
             d="m 1742.1051,934.47438 c 55.2457,46.91188 117.1229,83.22842 181.8619,115.15742 v 0 c 110.5803,54.543 228.3745,89.1265 345.5776,125.3493 v 0 c 7.1444,2.2083 15.342,1.7488 15.3018,12.5182 v 0 c -0.067,18.5497 7.3722,35.7077 12.5919,55.4998 v 0 c -44.7282,-15.8774 -88.5041,-24.6035 -132.5675,-32.4911 v 0 c 9.884,3.3191 19.741,6.7098 29.6516,9.942 v 0 c 31.2597,10.1871 62.611,20.1111 93.7704,30.5949 v 0 c 9.3373,3.1407 22.6919,9.9642 19.4821,18.3936 v 0 c -4.1534,10.9123 1.5526,10.7427 6.7409,14.305 v 0 c 20.7292,14.2247 41.2819,28.7013 64.391,44.8219 v 0 c -7.6286,-0.3345 -12.2236,0.1322 -16.4997,-0.8253 v 0 c -86.8266,-19.3661 -173.6687,-38.8371 -258.1399,-67.1102 v 0 c -169.1182,-56.6041 -303.749,-157.044 -393.9258,-313.04622 v 0 c -14.0887,-24.37618 -26.0046,-49.88996 -30.3655,-78.29228 v 0 c 17.6621,24.99399 39.1896,45.70304 62.1292,65.18298"
             style="display:inline;fill:#006b60;fill-opacity:1;stroke:none;stroke-width:2.23061" />
          <path
             id="path518"
             d="m 2124.2402,825.55139 c 59.6422,50.24663 130.9882,77.96874 201.9528,106.36219 v 0 c 141.0639,56.44565 279.1388,119.77262 418.1929,180.84012 v 0 c 7.6509,3.3615 17.7087,5.0745 22.8682,17.0084 v 0 c -56.3319,-17.2805 -109.7817,-33.8964 -163.3721,-50.0549 v 0 c -53.4501,-16.1183 -107.0383,-31.7818 -160.5664,-47.6415 v 0 c 28.3446,14.3899 57.6101,25.8351 87.5718,35.0096 v 0 c 70.8642,21.6927 141.9917,42.5244 213.1594,63.2088 v 0 c 18.7662,5.454 33.031,14.5837 37.8178,34.7642 v 0 c -8.251,-0.9726 -16.3303,-2.2797 -24.4586,-2.8307 v 0 c -66.5903,-4.5193 -133.2658,-7.9968 -199.7559,-13.6537 v 0 c -39.9723,-3.3995 -76.3716,-19.4599 -111.5862,-38.2037 v 0 c 44.4137,9.2348 88.7359,15.2352 140.1894,7.9165 v 0 c -80.7503,0.7695 -148.4583,-28.1525 -216.2399,-56.2738 v 0 c -87.1923,-36.1739 -169.3725,-80.17273 -232.4878,-153.10706 v 0 c -36.0154,-41.61869 -63.1886,-87.47566 -72.7937,-146.71177 v 0 c 21.9048,22.85044 38.1635,45.38636 59.5083,63.36732"
             style="display:inline;fill:#006b60;fill-opacity:1;stroke:none;stroke-width:2.23061" />
          <path
             id="path519"
             d="m 2625.1174,896.04083 c 18.9132,12.02087 39.069,22.13893 58.9417,32.59375 v 0 c 47.0033,24.73085 94.9994,47.53662 140.4258,75.29652 v 0 c 45.6184,27.8827 87.2415,60.0792 121.7401,101.3724 v 0 c 40.9139,48.9752 65.7048,106.6611 90.1768,164.4185 v 0 c 29.0249,68.511 63.035,134.0709 106.7459,194.4691 v 0 c 9.5226,13.1584 20.2362,25.9331 24.2178,42.2991 v 0 c -28.7279,15.8685 -70.8978,7.4658 -92.4522,-21.3224 v 0 c -59.236,-79.1176 -115.3092,-161.0993 -153.8049,-252.1061 v 0 c -41.63,-98.4056 -104.3993,-173.0731 -200.9582,-219.9449 v 0 c -43.0508,-20.89428 -84.8055,-44.66797 -124.3208,-72.07104 v 0 c -55.3593,-38.3934 -84.8368,-89.48774 -77.9621,-158.8665 v 0 c 18.0725,55.17418 62.156,85.20278 107.2501,113.86157 m 224.3169,159.78537 c 95.3118,72.5886 124.2294,188.6338 186.6843,282.7101 v 0 c -44.3602,-105.8091 -73.6926,-221.3215 -186.6843,-282.7101"
             style="display:inline;fill:#006b60;fill-opacity:1;stroke:none;stroke-width:2.23061" />
          <path
             id="path520"
             d="m 2899.4312,1211.6636 c -4.0106,-0.667 -7.9387,-1.3228 -13.0201,-2.1704 v 0 c 16.647,21.7998 44.0769,35.6831 40.9116,70.505 v 0 c -34.2554,-12.1969 -64.4289,-27.2847 -98.149,-31.2083 v 0 c -28.9825,-3.3727 -57.7238,-8.9226 -86.7373,-11.876 v 0 c -41.5541,-4.2336 -82.0887,-13.1941 -122.5834,-23.4257 v 0 c 34.2734,12.9062 68.6025,25.817 104.0425,33.8095 v 0 c 51.2796,11.5678 106.7259,9.1699 150.3454,52.1582 v 0 c -1.3294,-8.4027 -2.0834,-13.1807 -2.8461,-18.0032 v 0 c 30.992,-3.3749 81.6224,24.1418 90.5916,49.4393 v 0 c -5.1569,-2.0812 -9.6941,-3.9126 -14.5791,-5.8845 v 0 c 24.6594,69.9208 82.4322,115.0706 120.9145,177.1931 v 0 c -3.5709,-0.1123 -7.4835,-0.05 -11.3781,0.021 v 0 c -13.9235,0.2208 -27.6061,0.4416 -24.7153,-7.3656 v 0 c 6.3148,-17.0419 -5.1572,-19.645 -10.9925,-23.892 v 0 c -32.3749,-23.5463 -54.7079,-55.1051 -74.8883,-88.6512 v 0 c -16.0291,-26.6403 -38.6006,-46.8718 -62.0066,-66.5727 v 0 c -12.6763,16.2969 -7.1489,25.4089 7.9902,34.0457 v 0 c 32.518,18.5522 47.5834,51.6611 68.9616,82.2852 v 0 c -118.6305,0.4105 -183.5795,-26.8007 -205.8431,-86.3337 v 0 c 42.6315,8.046 84.2569,15.8998 128.2601,24.2067 v 0 c -39.9346,-38.4245 -86.6257,-41.8931 -133.9772,-33.4122 v 0 c -35.3931,6.3394 -82.1935,-7.6378 -101.7046,-37.2646 v 0 c 15.4536,-9.6498 33.6131,-7.0556 51.8886,-9.8638 v 0 c -7.4192,-8.6192 -15.3022,-13.0759 -24.3963,-13.5711 v 0 c -51.1747,-2.7727 -92.0842,-29.259 -132.3177,-57.0345 v 0 c -20.7201,-14.3071 -37.5324,-32.2167 -45.2926,-59.6242 v 0 c 40.2827,10.8429 80.6032,12.8885 120.7832,13.7918 v 0 c 27.7153,0.62 52.7606,6.6405 77.5383,18.9358 v 0 c 32.1007,15.9286 65.0379,30.4298 98.4547,43.3741 v 0 c 26.0848,10.1046 53.3429,17.8783 83.8576,10.0489 v 0 c -21.1796,-44.2241 -65.0625,-69.0196 -89.2557,-111.2295 v 0 c 70.1706,8.0235 102.8112,32.6406 110.1431,77.5784"
             style="display:inline;fill:#006b60;fill-opacity:1;stroke:none;stroke-width:2.23061" />
          <path
             id="path521"
             d="m 1816.2819,1426.9956 c 58.9551,18.465 119.7951,26.6246 181.4424,27.7644 v 0 c 87.728,1.6216 175.4755,1.2736 263.0339,8.947 v 0 c 45.8099,4.0129 84.7721,23.0266 127.4682,50.7153 v 0 c -90.3711,-4.9143 -173.6978,3.8812 -256.895,15.6431 v 0 c 29.1405,0.2031 58.2969,-0.814 87.4511,-1.8312 v 0 c 58.2881,-2.0322 116.5629,-4.0665 174.6457,3.6424 v 0 c -17.6866,4.9521 -35.4222,7.5908 -52.8946,11.4319 v 0 c -101.9187,22.3955 -203.7708,41.0812 -309.1225,24.4655 v 0 c -112.0861,-17.6799 -211.0873,-60.3894 -290.4925,-143.1072 v 0 c -20.3588,-21.2064 -41.525,-42.2744 -53.7401,-70.4427 v 0 c 35.8239,37.5545 81.2189,57.7751 129.1034,72.7715"
             style="display:inline;fill:#006b60;fill-opacity:1;stroke:none;stroke-width:2.23061" />
          <path
             id="path780"
             d="m 2890.6783,1795.0554 c -5.5208,2.1325 -9.5247,4.3318 -13.8029,5.2396 v 0 c -135.5432,28.7104 -261.4345,82.196 -383.6386,146.3149 v 0 c -65.2631,34.2442 -134.8046,53.858 -209.963,39.9101 v 0 c -43.8516,-8.1373 -81.1362,-28.1413 -111.6421,-60.6569 v 0 c 39.8767,14.6505 79.5304,26.6534 122.61,15.9956 v 0 c 31.463,-7.7848 57.0011,-25.989 82.1022,-44.9202 v 0 c 40.258,-30.354 82.6441,-56.8247 130.1874,-74.3015 v 0 c 74.2683,-27.2982 150.1068,-43.7132 230.1032,-32.3438 v 0 c -59.0532,11.898 -117.4974,25.3085 -171.0766,51.3865 v 0 c 17.838,-5.1885 35.6315,-10.5286 53.5234,-15.5161 v 0 c 17.1868,-4.7914 34.338,-10.0825 58.0672,-10.8118 v 0 c -8.4271,3.8744 -11.4251,5.2553 -15.3465,7.0576 v 0 c 7.4568,3.5824 13.3815,1.0217 19.6158,-0.667 v 0 c 59.2117,-16.027 119.5431,-26.2608 180.2157,-34.8063 v 0 c 2.5832,-0.3637 5.0814,-0.58 7.5062,-0.58 v 0 c 7.729,0 14.7376,2.186 21.5386,8.6993"
             style="display:inline;fill:#006b60;fill-opacity:1;stroke:none;stroke-width:2.23061" />
          <path
             id="path781"
             d="m 2785.0923,1854.4678 c -30.9319,20.129 -63.0215,36.6044 -87.1389,63.5501 v 0 c 1.0863,1.9204 2.1728,3.8367 3.2614,5.7573 v 0 c 33.0307,-21.0504 66.0594,-42.0962 101.1671,-64.4692 v 0 c -36.9413,54.4938 -71.7545,106.5228 -123.1232,144.8582 v 0 c -61.1745,45.6516 -120.4596,94.3278 -193.8223,119.8463 v 0 c -71.9194,25.0162 -140.7449,20.0218 -204.8125,-26.0425 v 0 c 85.4726,25.1165 146.743,-8.9135 201.4734,-72.7113 v 0 c 74.2413,-86.541 173.0909,-136.1654 280.6822,-169.3634 v 0 c 4.2227,-1.3028 8.4429,-4.207 13.629,-4.207 v 0 c 2.6097,0 5.4651,0.736 8.6838,2.7815"
             style="display:inline;fill:#006b60;fill-opacity:1;stroke:none;stroke-width:2.23061" />
          <path
             id="path782"
             d="m 2568.5066,1707.8474 c 25.8664,0.7473 52.3726,1.7222 76.6862,14.2603 v 0 c -62.6243,2.8531 -125.2288,2.1392 -186.0129,19.5402 v 0 c 49.9567,-2.5631 99.7239,-10.2675 149.993,-4.9341 v 0 c -43.0643,0.5911 -85.6086,5.7216 -127.9211,13.5197 v 0 c 5.9245,0.9994 11.9226,1.7866 17.6507,0.8744 v 0 c 41.5275,-6.6227 83.2956,-8.492 125.2914,-8.0836 v 0 c 18.1483,0.176 32.2658,7.3141 48.4622,21.0345 v 0 c -115.3985,14.6975 -223.0835,44.851 -330.4875,76.3605 v 0 c -47.8666,14.0419 -97.0204,19.0851 -146.7742,15.1905 v 0 c -59.2741,-4.6374 -111.4613,-25.5449 -154.0438,-68.975 v 0 c 4.2204,-2.9154 6.6072,-1.4231 9.4355,-0.1588 v 0 c 62.0199,27.7041 124.5017,28.5339 187.3,2.7301 v 0 c 24.2066,-9.9461 48.0675,-20.7802 72.4837,-30.1777 v 0 c 78.5266,-30.2182 159.0337,-51.391 243.4757,-51.3889 v 0 c 4.8048,0 9.6319,0.069 14.4611,0.2075"
             style="display:inline;fill:#006b60;fill-opacity:1;stroke:none;stroke-width:2.23061" />
          <path
             id="path783"
             d="m 3089.3543,2001.7661 c 0.1919,0.089 0.021,0.1808 -0.9479,0.04 v 0 c -17.7223,84.1743 -37.4051,168.179 -68.6962,248.8001 v 0 c -31.9378,82.2916 -85.2115,148.9602 -150.7982,206.8468 v 0 c 19.3796,-58.0383 31.543,-117.0335 38.4335,-177.3314 v 0 c 10.3477,-90.5114 36.4371,-175.219 92.6706,-248.9741 v 0 c 9.3464,-12.2572 21.2065,-21.9136 33.3165,-16.5957 v 0 c 23.2094,10.1893 37.2936,-5.0436 54.5294,-12.7457 v 0 c 0.2544,-0.1135 0.54,-0.1523 0.7987,-0.1523 v 0 c 0.3056,0 0.5731,0.055 0.6936,0.1122"
             style="display:inline;fill:#006b60;fill-opacity:1;stroke:none;stroke-width:2.23061" />
          <path
             id="path784"
             d="m 2601.1516,1291.2405 c -3.9614,2.1192 -7.6577,0.7272 -11.4186,-0.6625 v 0 c -4.7086,-1.7442 -9.5225,-3.4886 -15.0922,1.6729 v 0 c 87.0563,26.502 157.4768,79.1267 229.4474,132.9692 v 0 c -23.437,0.9836 -44.2621,-4.2405 -64.1234,-12.1346 v 0 c -72.4815,-28.8084 -147.1422,-49.1716 -223.8574,-63.2868 v 0 c -50.9605,-9.3753 -99.1241,-27.8115 -143.6692,-55.1163 v 0 c -37.8936,-23.2272 -59.7313,-56.6151 -67.7996,-101.0824 v 0 c 1.3028,0 2.5853,0 3.8834,0 v 0 c 108.9767,0 207.8061,26.4551 292.6296,97.6517"
             style="display:inline;fill:#006b60;fill-opacity:1;stroke:none;stroke-width:2.23061" />
          <path
             id="path785"
             d="m 2743.2127,2040.1885 c 1.916,2.2529 3.8277,4.5058 5.7437,6.7564 v 0 c 32.3505,-11.2733 50.1776,-43.7534 84.1253,-63.0481 v 0 c -14.1934,28.9087 -24.3047,52.7628 -32.0896,77.5695 v 0 c -1.974,6.2858 -4.8293,12.2684 -12.2974,14.9293 v 0 c -14.6149,5.2086 -24.5768,16.8835 -35.0874,27.459 v 0 c -29.636,29.8209 -60.9961,57.6791 -94.5624,82.9541 v 0 c -34.5298,26.0024 -71.946,46.1358 -116.043,49.4259 v 0 c -28.9958,2.166 -56.8518,-1.8291 -83.7706,-22.2504 v 0 c 62.4079,-2.6946 95.1914,-15.9687 117.9436,-57.6857 v 0 c 38.8638,-71.2613 101.4236,-114.6712 168.5315,-153.7315 v 0 c 16.8925,-9.8325 35.1411,-17.8293 59.5685,-20.6197 v 0 c -22.7745,21.3714 -42.4173,39.8073 -62.0622,58.2412"
             style="display:inline;fill:#006b60;fill-opacity:1;stroke:none;stroke-width:2.23061" />
          <path
             id="path786"
             d="m 2919.2681,2124.2735 c -27.4522,50.963 -56.807,100.759 -104.4173,136.2011 v 0 c -55.9236,41.6277 -117.8364,55.7789 -186.5816,38.9222 v 0 c 63.1822,-12.2976 96.8531,-55.6962 121.3988,-110.1276 v 0 c 13.3034,-29.4933 34.3402,-54.2351 53.8625,-79.9163 v 0 c 11.8401,-15.574 26.0579,-23.7983 44.5743,-27.0192 v 0 c 14.3095,-2.4894 28.4627,-5.8732 44.3826,-9.2125 v 0 c -23.2005,28.119 -43.4746,56.1333 -59.9746,86.9136 v 0 c 41.5609,-42.7654 75.7517,-93.4181 135.9894,-117.3168 v 0 c -19.683,26.2966 -34.3605,53.9496 -49.2341,81.5555"
             style="display:inline;fill:#006b60;fill-opacity:1;stroke:none;stroke-width:2.23061" />
          <path
             id="path787"
             d="m 3090.6192,2237.3166 c 0,-12.2708 -0.03,-18.8332 0,-25.3934 v 0 c 0.038,-7.4993 0.2207,-14.9986 0.1829,-22.498 v 0 c -0.065,-11.6637 2.4715,-21.124 16.9103,-21.1684 v 0 c 13.8253,-0.045 17.1712,8.8242 18.2307,20.4657 v 0 c 1.151,12.6565 2.7191,25.3086 4.8517,37.8379 v 0 c 13.7562,80.8063 -11.3382,147.7647 -72.97,200.7508 v 0 c -22.855,19.6493 -49.745,31.0543 -85.4414,26.7092 v 0 c 50.3159,-26.8722 68.7073,-68.9548 75.4303,-118.7712 v 0 c 3.7408,-27.7086 1.5146,-55.4307 3.1161,-83.0925 v 0 c 2.2307,-38.5918 12.1792,-75.1292 29.5156,-111.7848 v 0 c 10.4146,31.4137 0.7717,62.0868 10.1648,96.9447"
             style="display:inline;fill:#006b60;fill-opacity:1;stroke:none;stroke-width:2.23061" />
          <path
             id="path788"
             d="m 2834.0075,1698.4566 c -11.2045,5.8039 -17.8048,9.9419 -16.5891,18.8642 v 0 c 3.1854,23.4169 19.9885,38.6901 35.2547,55.5176 v 0 c -61.0429,10.0222 -119.0833,11.1465 -172.9884,-33.1154 v 0 c 12.2193,-0.7319 19.7834,-1.1823 34.0079,-2.0343 v 0 c -31.8285,-11.2916 -51.9396,-29.1342 -77.565,-44.6547 v 0 c 22.3196,-9.2838 43.9611,-12.5629 65.3436,-12.5629 v 0 c 44.0902,0 87.0652,13.9503 132.5363,17.9855"
             style="display:inline;fill:#006b60;fill-opacity:1;stroke:none;stroke-width:2.23061" />
          <path
             id="path789"
             d="m 1850.7048,524.37633 c 33.1848,106.74815 94.6358,194.52946 179.4705,266.61842 v 0 c 14.8023,12.5783 29.7318,25.42663 39.6,48.257 v 0 C 1932.4789,749.8689 1855.1503,628.1712 1836.4668,470.46692 v 0 c 4.7066,17.98094 8.7261,36.17839 14.238,53.90941"
             style="display:inline;fill:#006b60;fill-opacity:1;stroke:none;stroke-width:2.23061" />
          <path
             id="path790"
             d="m 2858.3679,1241.3218 c -34.813,-2.3199 -119.3956,-39.966 -141.4319,-62.7986 v 0 c 8.5521,-0.9657 16.8969,-1.4721 25.0208,-1.4698 v 0 c 48.5179,0 88.9926,18.0612 116.4111,64.2684"
             style="display:inline;fill:#006b60;fill-opacity:1;stroke:none;stroke-width:2.23061" />
        </g>
      </g>
    </g>
  </g>
</svg>
