<?xml version="1.0" encoding="UTF-8" standalone="no"?>
<svg
   version="1.1"
   id="svg1"
   viewBox="0 0 6170.7417 2532.5667"
   xmlns="http://www.w3.org/2000/svg"
   xmlns:svg="http://www.w3.org/2000/svg">
  <defs
     id="defs1" />
  <g
     id="g310"
     style="display:inline"
     transform="translate(-247.96246,-915.49852)">
    <g
       id="g265"
       style="display:inline"
       transform="translate(65.270671)">
      <g
         id="g264"
         transform="matrix(2.1607562,0,0,2.1607562,-7042.8046,-2461.0787)">
        <path
           style="fill:#49836b;stroke:#49836b;stroke-width:16.6837"
           d="m 2747.8861,3260.582 c 1.335,3.3375 3.3375,4.6725 6.675,4.6725 4.6726,0 7.3426,-2.67 7.3426,-7.3426 l -0.6675,-4.005 -222.2804,-433.2133 c -2.0026,-4.6726 -4.6726,-6.6751 -8.0102,-6.6751 -3.3375,0 -6.0075,2.0025 -8.0101,6.6751 l -152.192,295.0389 h -48.7282 c -4.6725,0 -7.3426,2.0026 -7.3426,6.6751 0,4.6726 2.6701,7.3426 7.3426,7.3426 h 42.0531 l -202.0573,394.7465 -0.4164,1.2493 a 8.4983824,8.4983824 89.564133 0 0 0.042,5.4972 6.309896,6.309896 42.129084 0 0 3.5451,3.2064 l 2.8371,1.3947 c 0,0 4.8135,0.5639 7.3426,-4.6725 l 205.3948,-401.4216 h 299.7116 z m -360.4549,-144.8495 142.8469,-279.6862 142.847,279.6862 z m 449.9006,-288.3639 c 0,-5.34 -2.6701,-8.0101 -7.3426,-8.0101 -5.3401,0 -8.0101,2.6701 -8.0101,8.0101 v 420.5307 c 0,6.6751 1.335,10.6801 3.3375,12.6827 2.0025,2.0025 6.0076,3.3375 13.3502,3.3375 h 283.6913 c 4.6726,0 7.3426,-2.0025 7.3426,-6.6751 0,-4.6725 -2.67,-7.3426 -7.3426,-7.3426 h -285.0263 z m 708.2265,4.0051 c 2.67,-2.0025 4.005,-4.0051 4.005,-6.0076 0,-4.6725 -2.67,-7.3426 -7.3426,-7.3426 l -5.34,2.0026 -332.4195,248.3133 v -241.6383 c 0,-5.34 -2.6701,-8.0101 -7.3426,-8.0101 -5.3401,0 -8.0101,2.6701 -8.0101,8.0101 v 429.2083 c 0,5.3401 2.67,8.0101 8.0101,8.0101 4.6725,0 7.3426,-2.67 7.3426,-8.0101 v -167.5447 l 334.422,176.8898 4.005,1.3351 c 4.6726,0 7.3426,-2.6701 7.3426,-7.3426 0,-3.3376 -1.335,-6.0076 -4.6725,-7.3426 L 3215.8088,3078.352 Z m 80.1014,-4.6726 c 0,-5.34 -2.67,-8.0101 -7.3426,-8.0101 -5.34,0 -8.0101,2.6701 -8.0101,8.0101 v 429.2083 c 0,5.3401 2.6701,8.0101 8.0101,8.0101 4.6726,0 7.3426,-2.67 7.3426,-8.0101 z m 271.0091,222.948 c 2.0025,3.3376 4.6726,5.3401 7.3426,5.3401 2.0025,0 4.6726,-2.0025 8.0101,-5.3401 l 155.5296,-206.2602 v 412.5205 c 0,5.3401 2.67,8.0101 8.0101,8.0101 4.6726,0 7.3426,-2.67 7.3426,-8.0101 v -432.5458 c 0,-6.6751 -2.67,-10.0126 -8.0101,-10.0126 -2.0025,0 -4.6726,1.335 -7.3426,4.6725 l -163.5397,218.943 -165.5422,-218.943 c -2.6701,-3.3375 -5.3401,-4.6725 -7.3426,-4.6725 -5.3401,0 -8.0101,3.3375 -8.0101,10.0126 v 432.5458 c 0,5.3401 2.67,8.0101 8.0101,8.0101 4.6725,0 7.3426,-2.67 7.3426,-8.0101 v -412.5205 z m 299.0437,-222.948 c 0,-5.34 -2.6701,-8.0101 -7.3426,-8.0101 -5.3401,0 -8.0101,2.6701 -8.0101,8.0101 v 429.2083 c 0,5.3401 2.67,8.0101 8.0101,8.0101 4.6725,0 7.3426,-2.67 7.3426,-8.0101 z m 513.3147,433.8809 c 1.335,3.3375 3.3375,4.6725 6.6751,4.6725 4.6725,0 7.3426,-2.67 7.3426,-7.3426 l -0.6675,-4.005 -222.2805,-433.2133 c -2.0026,-4.6726 -4.6726,-6.6751 -8.0101,-6.6751 -3.3376,0 -6.0076,2.0025 -8.0102,6.6751 l -152.192,295.0389 h -48.7282 c -4.6725,0 -7.3425,2.0026 -7.3425,6.6751 0,4.6726 2.67,7.3426 7.3425,7.3426 h 42.0531 l -64.0808,124.1567 -1.3351,4.005 c 0,4.6726 2.6701,7.3426 7.3426,7.3426 3.3376,0 5.3401,-1.335 7.3426,-4.6725 l 67.4184,-130.8318 h 299.7116 z m -360.4549,-144.8495 142.8469,-279.6862 142.847,279.6862 z"
           id="path264"
           aria-label="ALKIMIA"
           transform="matrix(1.1075229,0,0,1.2286252,959.67234,-1883.6218)" />
        <path
           d="m 3710.2822,4242.7949 c 59.298,0 118.596,-60.7804 151.2099,-104.2656 18.2836,-24.2134 49.9092,-68.1927 65.2278,-99.8183 l 20.7543,-43.4852 c 1.9766,-4.4474 2.4708,-8.4006 2.4708,-11.8596 0,-3.4591 -0.4942,-5.9298 -1.4825,-6.9181 -0.9883,-1.4825 -3.9532,-2.9649 -6.4239,-2.9649 -2.4708,0 -8.4006,6.9181 -12.8479,14.8245 -38.5437,67.2044 -141.3269,202.6015 -208.5313,225.3324 -5.4357,1.9766 -9.883,2.9649 -13.3421,2.9649 -1.9766,0 -3.459,0 -4.9415,-0.4942 -21.2484,-2.4707 -27.6724,-31.1314 -27.6724,-49.9091 0,-3.4591 0,-7.4123 0.4942,-13.3421 0,-61.7687 35.0846,-139.8444 66.7102,-190.2477 37.0613,-60.7805 86.9704,-110.6896 120.5726,-123.0434 2.4708,-0.9883 4.9415,-1.4824 6.9181,-1.4824 1.4825,0 2.9649,0.4941 4.4474,1.4824 4.9415,2.4708 6.9181,10.3772 6.9181,15.8128 0,42.4969 -58.3097,150.7158 -98.83,177.894 l -8.4006,6.424 c -0.4941,0.9883 -0.9883,2.9649 -0.9883,3.9532 -0.4941,3.9532 4.9415,8.4005 13.3421,9.883 1.9766,0.4941 3.9532,0.9883 5.9298,0.9883 25.6958,-1.4825 48.9208,-31.6256 62.757,-50.8975 28.6607,-39.532 48.9209,-91.9119 48.9209,-141.3269 0,-22.2367 -4.9415,-52.3799 -28.1666,-61.7687 -2.9649,-0.9883 -6.4239,-1.4825 -9.883,-1.4825 -43.9793,0 -112.6662,80.5465 -138.8561,116.1253 -46.4501,63.2512 -84.4997,148.7391 -84.4997,228.7914 0,33.6022 7.4123,73.1342 39.532,90.9236 9.3889,4.9415 18.2836,7.9064 28.6607,7.9064 z m 172.4587,-134.4088 c -9.883,32.6139 -15.3187,55.839 -15.3187,68.1927 0,3.4591 0.4942,5.9298 1.4825,7.4123 1.9766,3.9532 6.9181,6.9181 11.8596,6.9181 4.4473,0 5.4356,-1.9766 6.4239,-6.424 l 3.9532,-11.8596 c 17.2953,-51.8857 93.3944,-185.3062 119.5843,-199.6366 0.4942,-0.4941 0.9883,-0.4941 0.9883,-0.4941 0.9883,0 1.4825,2.4707 1.4825,3.9532 0,3.459 -3.4591,12.8479 -13.8362,38.5437 l -4.9415,12.3537 c -13.3421,33.6022 -40.5203,100.3125 -40.5203,119.5843 v 4.9415 c 0,17.2953 6.9181,39.0379 27.1782,39.0379 27.6724,0 120.0785,-169.4935 120.0785,-198.6483 0,-2.9649 -0.9883,-7.9064 -4.9415,-7.9064 -3.4591,0 -7.9064,3.9532 -12.8479,13.8362 -7.9064,14.8245 -84.9938,152.6923 -98.83,152.6923 -1.4825,0 -1.9766,-1.4824 -1.9766,-4.9415 0,0 0,-1.4824 0.4941,-4.4473 l 43.4852,-123.5375 c 5.9298,-16.307 11.8596,-33.1081 11.8596,-52.3799 0,-13.8362 -2.9649,-27.1783 -17.2952,-33.6022 -2.4708,-1.4825 -2.9649,-1.4825 -3.9532,-1.4825 -20.7543,4.9415 -70.1693,88.947 -83.5114,114.6428 33.1081,-89.9353 76.5933,-189.2594 107.7247,-206.5547 2.4708,-1.4824 4.4474,-2.9649 4.9415,-3.459 1.9766,-1.4825 2.9649,-7.9064 2.9649,-13.3421 0,-13.342 -6.4239,-25.6958 -17.2952,-25.6958 -51.8858,0 -136.3854,267.8293 -149.2333,312.3028 z m 243.6155,42.9911 c 0,15.3186 6.9181,39.0378 26.1899,39.0378 29.1549,0 120.5726,-169.4934 120.5726,-199.6366 0,-4.4473 -1.9766,-6.9181 -4.4473,-6.9181 -3.4591,0 -7.9064,3.9532 -13.3421,13.8362 l -68.6868,116.6194 c -13.8362,23.2251 -25.2017,35.5788 -29.649,35.5788 -1.4825,0 -1.9766,-0.9883 -1.9766,-2.4707 v -1.4825 c 0.4941,-1.4824 0.4941,-2.9649 0.4941,-4.4473 l 1.4825,-5.9298 c 7.4122,-45.956 31.6256,-112.1721 60.7804,-166.0344 4.4474,-7.9064 7.4123,-14.8245 7.4123,-16.8011 0,-2.4708 -3.9532,-6.424 -9.3889,-8.8947 -2.4707,-1.4825 -4.4473,-1.9766 -6.9181,-1.9766 -4.9415,0 -8.4005,1.4824 -11.3654,4.9415 -3.9532,5.9298 -8.4006,15.3186 -13.8362,27.1782 l -2.9649,-12.3537 c -3.4591,-13.8362 -12.8479,-32.6139 -31.6256,-32.6139 -56.3331,0 -111.6779,171.9642 -111.6779,231.2622 0,5.4356 0.4941,11.8596 0.9883,14.3303 2.4707,5.9298 7.4122,11.3655 13.342,14.3304 2.4708,1.4824 4.9415,1.9766 6.9181,1.9766 2.9649,0 5.4357,-0.9883 8.4006,-2.4708 23.7192,-8.4005 51.8857,-54.3565 64.2395,-75.1108 l -4.9415,31.6256 z m 43.4852,-163.5637 c 0,25.2017 -93.3944,165.0461 -100.8066,165.0461 -0.9883,0 -1.4825,-1.4824 -1.4825,-5.4356 0,-40.0262 50.8975,-163.0695 82.0289,-176.9057 3.4591,-1.9766 5.9298,-2.4708 7.9064,-2.4708 9.883,0 12.3538,15.8128 12.3538,19.766 z m 137.374,-103.2773 c 0,-12.3538 -3.9532,-36.073 -15.8128,-36.073 -17.2952,0 -29.1548,44.9677 -29.1548,63.7454 0,8.4005 2.4707,18.2835 7.9064,29.1548 1.4824,3.4591 1.9766,4.9415 1.9766,5.9298 0,4.4474 -12.8479,38.5437 -29.1549,75.1108 -2.4707,5.9298 -2.9649,7.4123 -2.9649,11.3655 0,6.4239 1.4825,8.8947 4.9415,9.883 h 1.9766 c 4.9415,0 9.3889,-5.4357 17.2953,-21.7426 l 25.2016,-58.3097 2.4708,1.9766 c 3.459,1.9766 10.8713,5.9298 18.7777,7.9064 -0.4942,0.9883 -0.9883,1.9766 -0.9883,2.9649 l -10.3772,23.225 c -15.3186,34.5905 -46.4501,107.2306 -46.4501,145.7743 v 6.4239 c -0.9883,29.649 12.3538,33.6022 19.2719,37.0613 1.9766,0.9883 4.4473,1.9766 6.4239,1.9766 29.1549,0 121.5609,-169.4935 121.5609,-198.6483 0,-2.9649 -0.9883,-7.9064 -4.9415,-7.9064 -3.459,0 -7.9064,3.9532 -11.8596,11.3654 l -70.1693,119.0902 c -13.8362,23.225 -25.2016,35.5788 -29.649,35.5788 -1.4824,0 -1.9766,-0.9883 -1.9766,-2.4708 0,-0.4941 0.4942,-0.9883 0.4942,-0.9883 v -4.9415 l 1.4824,-5.9298 c 8.8947,-53.8623 33.1081,-109.2071 56.8273,-158.128 0.9883,-0.9883 1.9766,-2.9649 2.9649,-4.9415 0.4941,-0.4941 0.4941,-0.9883 0.4941,-0.9883 0.9883,-1.9766 0.9883,-2.4707 0.9883,-2.4707 0,0 0,-0.4942 1.4825,-3.4591 1.4824,-2.4707 3.9532,-7.4122 3.9532,-11.8596 0.4941,-3.459 -2.4708,-7.4122 -5.4357,-8.8947 -5.4356,-2.9649 -24.2133,-5.9298 -27.1782,-6.4239 l -18.2836,-4.4474 z m 152.1982,127.4907 c -0.4942,1.9766 -0.9883,3.459 -1.4825,4.4473 -13.342,34.5905 -46.4501,120.0785 -46.4501,155.1631 0,10.8713 3.4591,17.7894 10.8713,17.7894 h 2.4708 c 3.9532,0 4.4473,-1.4824 5.4356,-5.4356 5.4357,-20.2602 15.8128,-50.4033 25.6958,-67.6986 16.307,-33.6022 70.6635,-130.9497 93.3944,-142.8093 0.4941,-0.4942 0.9883,-0.4942 1.4824,-0.4942 0.4942,0 0.4942,0 0.9883,0.9883 0.4942,0.4942 0.4942,0.9883 0.4942,1.4825 0,3.9532 -3.9532,13.8362 -14.3304,40.5203 l -4.4473,11.3654 c -13.3421,33.6022 -40.5203,100.3125 -40.5203,119.5843 v 4.9415 c 0,16.8011 6.4239,39.0379 26.6841,39.0379 28.1665,0 120.5726,-169.4935 120.5726,-198.6483 0,-2.9649 -0.9883,-7.9064 -4.9415,-7.9064 -3.4591,0 -7.9064,3.9532 -12.8479,13.342 -7.9064,15.8128 -85.488,153.6807 -99.3242,153.6807 -0.9883,0 -1.4824,-0.9883 -1.4824,-3.9532 0,0 0,-1.4825 0.4941,-4.4474 1.9766,-9.883 8.8947,-30.1431 25.6958,-74.6166 18.2836,-49.415 20.2602,-54.3565 24.7075,-70.1693 3.4591,-12.8479 4.9415,-19.766 4.9415,-30.1432 0,-14.8245 -2.9649,-29.649 -17.7894,-36.5671 -0.4941,-0.4941 -1.4824,-0.9883 -2.9649,-0.9883 -1.4824,0.4942 -1.9766,0.4942 -2.4707,0.4942 -13.3421,3.459 -44.4735,49.9091 -67.6986,89.4411 l 6.9181,-24.7075 c 0.4942,-0.9883 0.4942,-1.9766 0.4942,-2.4707 2.4707,-10.3772 3.459,-17.2953 3.459,-25.6958 0,-14.3304 -2.9649,-29.1549 -17.7894,-36.073 -0.4941,-0.4941 -1.4824,-0.9883 -2.9649,-0.9883 -1.4824,0.4942 -1.9766,0.4942 -2.4707,0.4942 -18.2836,4.4473 -66.2161,86.9704 -78.5699,109.7013 14.3304,-35.5788 27.1783,-64.2395 32.1198,-73.6284 2.9649,-4.9415 5.9298,-11.8596 5.9298,-13.8362 0,-4.9415 -11.3655,-10.8713 -16.307,-10.8713 -27.6724,0 -90.9236,201.1191 -90.9236,234.2271 0,7.9064 3.9532,14.3304 12.8479,14.3304 4.4474,0 5.9298,-1.9766 7.4123,-6.424 8.4005,-30.1431 98.3358,-211.4962 124.0316,-211.4962 0.4942,0 0.4942,0 0.9883,0.9883 0.4942,0.4942 0.4942,0.9883 0.4942,1.4825 0,3.459 -3.4591,12.3537 -12.8479,36.5671 z m 139.8441,184.3179 c 0.4942,0 0.4942,0 1.4825,0.4942 h 4.9415 c 41.0144,0 93.3943,-36.073 93.3943,-85.488 0,-23.7192 -11.8596,-38.0495 -35.0846,-55.8389 -16.307,-12.3538 -23.2251,-20.2602 -22.7309,-26.19 0,-20.7543 44.4735,-53.8623 62.2629,-58.3097 h 1.4824 c 2.9649,-0.9883 4.4474,-0.9883 5.9298,-0.9883 4.4474,0 6.9181,1.9766 6.9181,6.424 v 1.4824 c 0,6.9181 -3.9532,16.307 -11.3654,28.6607 -3.4591,5.9298 -3.9532,7.4123 -3.9532,10.8713 0,0 0,1.9766 0.4941,1.9766 0.4942,0.9883 1.4825,1.4825 3.9532,1.4825 21.2485,0 36.073,-34.5905 36.073,-52.8741 v -4.4473 c 0,-6.424 -0.9883,-9.883 -2.4708,-14.8245 l -0.4941,-1.4825 c -7.4123,-11.8596 -12.8479,-16.8011 -25.6958,-16.8011 -42.0028,0 -102.2891,51.3916 -102.2891,99.8183 0,16.307 6.9181,27.1783 20.2602,42.0028 l 34.0963,37.5554 c 0.4942,0.9883 0.9883,1.9766 0.9883,2.9649 0,13.8362 -48.4267,38.5437 -63.2512,38.5437 -7.4122,0 -20.2601,-5.9298 -20.2601,-14.8245 0,-4.4474 3.459,-8.8947 9.883,-13.3421 1.4824,-0.9883 1.9766,-1.4824 1.9766,-3.9532 -0.4942,-1.9766 -3.9532,-3.459 -9.3889,-3.9532 h -2.4707 c -15.3187,0 -28.1666,29.1549 -28.1666,41.0145 0,0 0,0.4941 0.4942,0.9883 v 4.9415 c 2.4707,20.7543 22.7309,31.1314 41.5086,34.0963 z"
           id="text264"
           style="fill:#af8f5c;stroke:#49836b;stroke-width:0"
           transform="matrix(1.0442016,-0.28060546,0.25398739,0.88941614,0,0)"
           aria-label="Charms" />
      </g>
    </g>
  </g>
</svg>
